<?xml version="1.0" standalone="no"?>
<!DOCTYPE svg PUBLIC "-//W3C//DTD SVG 20010904//EN"
 "http://www.w3.org/TR/2001/REC-SVG-20010904/DTD/svg10.dtd">
<svg version="1.0" xmlns="http://www.w3.org/2000/svg"
 width="512.000000pt" height="512.000000pt" viewBox="0 0 512.000000 512.000000"
 preserveAspectRatio="xMidYMid meet">

<g transform="translate(0.000000,512.000000) scale(0.100000,-0.100000)"
fill="#000000" stroke="none">
<path d="M285 4166 c-49 -21 -94 -65 -121 -118 -62 -123 -89 -611 -64 -1163
17 -368 31 -558 47 -615 30 -110 109 -201 212 -242 l56 -23 2140 0 c1696 0
2149 3 2182 13 105 32 200 130 233 242 43 147 74 996 50 1380 -23 370 -60 473
-187 527 -47 19 -4503 19 -4548 -1z m4514 -142 c35 -25 50 -71 68 -216 30
-242 21 -1043 -17 -1420 -9 -93 -31 -146 -77 -190 -40 -38 -75 -49 -180 -55
l-93 -6 0 210 c0 248 -8 289 -71 352 -77 76 61 71 -1869 71 -1929 0 -1795 5
-1870 -70 -61 -61 -70 -107 -70 -353 l0 -210 -93 6 c-113 6 -152 21 -199 77
-45 52 -55 92 -67 280 -36 512 -38 1047 -6 1313 16 140 31 186 66 211 22 15
207 16 2239 16 2032 0 2217 -1 2239 -16z m-490 -1409 c47 -24 52 -51 49 -270
l-3 -200 -1795 0 -1795 0 -3 200 c-3 217 2 246 47 270 40 22 3458 22 3500 0z"/>
<path d="M4193 3696 c-54 -46 -26 -145 44 -159 99 -19 154 109 74 170 -27 21
-87 16 -118 -11z"/>
<path d="M1535 3675 c-14 -13 -25 -33 -25 -45 0 -11 11 -32 25 -45 l24 -25
1001 0 1001 0 24 25 c14 13 25 33 25 45 0 12 -11 32 -25 45 l-24 25 -1001 0
-1001 0 -24 -25z"/>
<path d="M1277 1658 c-8 -13 -20 -63 -26 -113 -22 -166 -87 -322 -185 -449
-52 -67 -56 -87 -21 -121 48 -49 93 -24 175 95 96 141 155 310 175 501 6 60 5
69 -14 88 -29 29 -86 29 -104 -1z"/>
<path d="M1914 1666 c-16 -12 -20 -31 -25 -133 -4 -65 -14 -149 -24 -188 -20
-83 -81 -217 -126 -279 -23 -33 -30 -51 -25 -70 12 -50 60 -71 106 -46 25 13
97 130 132 214 44 107 68 219 75 348 5 99 3 121 -11 143 -19 29 -69 34 -102
11z"/>
<path d="M2506 1658 c-14 -19 -16 -70 -16 -350 0 -315 1 -329 20 -348 11 -11
33 -20 50 -20 17 0 39 9 50 20 19 19 20 33 20 348 0 372 0 372 -70 372 -29 0
-43 -6 -54 -22z"/>
<path d="M3106 1658 c-38 -54 -8 -318 55 -476 35 -90 112 -218 139 -232 46
-25 94 -4 106 46 5 19 -2 37 -25 70 -45 62 -106 196 -126 279 -10 39 -20 123
-24 188 -5 102 -9 121 -25 133 -31 22 -82 18 -100 -8z"/>
<path d="M3740 1660 c-24 -24 -25 -46 -5 -165 25 -158 82 -303 166 -425 84
-122 125 -145 174 -95 35 34 31 54 -21 121 -98 127 -163 283 -185 449 -6 50
-18 100 -26 113 -18 29 -75 30 -103 2z"/>
</g>
</svg>
