<svg width="100" height="100" viewBox="0 0 100 100" fill="none" xmlns="http://www.w3.org/2000/svg">
<circle cx="50" cy="50" r="50" fill="#B61635"/>
<g clip-path="url(#clip0_74_2745)">
<path fill-rule="evenodd" clip-rule="evenodd" d="M71.9094 45.974C73.7216 46.4384 74.992 48.0709 74.9999 49.9453C75.0108 51.8281 73.7457 53.4783 71.9276 53.9532C71.3481 57.0934 70.1087 60.0741 68.2916 62.6975C69.2199 64.3069 68.9513 66.3407 67.6371 67.6527C66.8754 68.4285 65.8327 68.8622 64.7466 68.855C64.0105 68.8493 63.2891 68.6482 62.6559 68.2721C60.0379 70.0929 57.0633 71.3349 53.9296 71.9155C53.467 73.7303 51.8356 75 49.9665 75C48.0973 75 46.4659 73.7303 46.0033 71.9155C42.8696 71.3349 39.895 70.0929 37.277 68.2721C36.651 68.6293 35.9431 68.8176 35.2227 68.8186C34.1366 68.8258 33.0939 68.3921 32.3321 67.6162C31.0118 66.2895 30.7573 64.2345 31.714 62.6247C29.8969 60.0012 28.6575 57.0205 28.0781 53.8803C26.267 53.4167 25 51.782 25 49.9089C25 48.0359 26.267 46.4011 28.0781 45.9375C28.6575 42.7973 29.8969 39.8166 31.714 37.1932C30.8134 35.6213 31.05 33.6432 32.2958 32.3291C33.6411 31.0476 35.6665 30.8032 37.277 31.7279C39.9097 29.8849 42.9129 28.6413 46.076 28.0845C46.5386 26.2697 48.17 25 50.0392 25C51.9083 25 53.5397 26.2697 54.0024 28.0845C57.1401 28.6514 60.1175 29.8946 62.7286 31.7279C64.3068 30.8062 66.2986 31.0124 67.6553 32.238C68.9756 33.5647 69.2301 35.6197 68.2734 37.2296C70.0905 39.853 71.3299 42.8338 71.9094 45.974ZM60.9117 66.1594C60.3807 64.6567 60.7631 62.9819 61.8934 61.8601C63.037 60.7809 64.6912 60.4424 66.1656 60.9857C67.6567 58.7882 68.6837 56.3084 69.1834 53.6987C67.7364 53.0394 66.8074 51.5935 66.8074 50.0006C66.8074 48.4077 67.7364 46.9618 69.1834 46.3025C68.6897 43.694 67.6689 41.2142 66.1838 39.0155C65.7182 39.1546 65.233 39.2162 64.7476 39.1977C63.4233 39.191 62.1842 38.5423 61.4224 37.4569C60.6605 36.3714 60.4702 34.9836 60.9117 33.7324C58.7502 32.2578 56.3139 31.2354 53.7488 30.7266C53.0909 32.1766 51.648 33.1075 50.0584 33.1075C48.4688 33.1075 47.0258 32.1766 46.3679 30.7266C43.7648 31.2213 41.2901 32.2442 39.096 33.7324C39.5697 34.9982 39.3902 36.4167 38.616 37.5239C37.8419 38.6311 36.5727 39.2845 35.2237 39.2705C34.7464 39.2615 34.2737 39.1754 33.8239 39.0155C32.3523 41.1815 31.332 43.6227 30.8242 46.1931C32.2713 46.8525 33.2002 48.2984 33.2002 49.8913C33.2002 51.4842 32.2713 52.9301 30.8242 53.5894C31.324 56.1991 32.3509 58.6789 33.842 60.8764C35.3153 60.3913 36.9356 60.7708 38.0416 61.8601C39.159 62.9899 39.5271 64.6637 38.9869 66.1594C41.1811 67.6476 43.6557 68.6706 46.2588 69.1653C46.9168 67.7153 48.3597 66.7844 49.9493 66.7844C51.5389 66.7844 52.9818 67.7153 53.6398 69.1653C56.2429 68.6706 58.7175 67.6476 60.9117 66.1594Z" fill="white"/>
<path d="M49.9967 36.7266C42.7174 36.7266 36.8164 42.6398 36.8164 49.9342C36.8164 57.2286 42.7174 63.1418 49.9967 63.1418C57.276 63.1418 63.177 57.2286 63.177 49.9342C63.167 42.644 57.2718 36.7366 49.9967 36.7266Z" fill="white"/>
<path fill-rule="evenodd" clip-rule="evenodd" d="M46.221 58.0004C45.547 58.0004 45 57.4539 45 56.7791V47.8773C45 47.2032 45.547 46.6563 46.221 46.6563C46.895 46.6563 47.4425 47.2032 47.4425 47.8773V56.7791C47.4425 57.4539 46.895 58.0004 46.221 58.0004Z" fill="#B61635"/>
<path fill-rule="evenodd" clip-rule="evenodd" d="M50.4998 53.3981C49.8258 53.3981 49.2793 52.8509 49.2793 52.1764C49.2793 51.5021 49.8258 50.9554 50.4998 50.9554C52.1861 50.9554 53.5581 49.5834 53.5581 47.8973C53.5581 47.2225 54.1041 46.6758 54.7791 46.6758C55.4532 46.6758 55.9999 47.2225 55.9999 47.8973C55.9999 50.9304 53.5325 53.3981 50.4998 53.3981Z" fill="#B61635"/>
<path fill-rule="evenodd" clip-rule="evenodd" d="M54.7804 58.0004C54.1056 58.0004 53.5596 57.4539 53.5596 56.7791V56.4562C53.5596 54.7701 52.1874 53.3986 50.5011 53.3986C47.4686 53.3986 45.002 50.9307 45.002 47.8975V47.8773C45.002 47.2032 45.5484 46.6562 46.2225 46.6562C46.8968 46.6562 47.4437 47.2032 47.4437 47.8773V47.8975C47.4437 49.5836 48.8155 50.9556 50.5011 50.9556C53.534 50.9556 56.0014 53.4232 56.0014 56.4562V56.7791C56.0014 57.4539 55.4544 58.0004 54.7804 58.0004Z" fill="#B61635"/>
<path fill-rule="evenodd" clip-rule="evenodd" d="M46.221 49.0988C45.547 49.0988 45 48.5521 45 47.8771C45 44.8446 47.4672 42.377 50.4996 42.377C51.1744 42.377 51.7209 42.9237 51.7209 43.598C51.7209 44.2725 51.1744 44.8197 50.4996 44.8197C48.814 44.8197 47.4425 46.191 47.4425 47.8771C47.4425 48.5521 46.895 49.0988 46.221 49.0988Z" fill="#B61635"/>
<path fill-rule="evenodd" clip-rule="evenodd" d="M54.7791 49.1178C54.1044 49.1178 53.5584 48.5716 53.5584 47.8968C53.5584 46.2103 52.1861 44.8388 50.4998 44.8388C49.8253 44.8388 49.2793 44.292 49.2793 43.6177C49.2793 42.9432 49.8253 42.3965 50.4998 42.3965C53.5327 42.3965 56.0002 44.8637 56.0002 47.8968C56.0002 48.5716 55.4532 49.1178 54.7791 49.1178Z" fill="#B61635"/>
</g>
<defs>
<clipPath id="clip0_74_2745">
<rect width="50" height="50" fill="white" transform="translate(25 25)"/>
</clipPath>
</defs>
</svg>
