<svg width="100" height="100" viewBox="0 0 100 100" fill="none" xmlns="http://www.w3.org/2000/svg">
<circle cx="50" cy="50" r="50" fill="#B61635"/>
<g clip-path="url(#clip0_74_2717)">
<path d="M61.7188 57.3242C60.9104 57.3242 60.2539 57.9807 60.2539 58.7891C60.2539 59.5974 60.9104 60.2539 61.7188 60.2539C62.5271 60.2539 63.1836 59.5974 63.1836 58.7891C63.1836 57.9807 62.5271 57.3242 61.7188 57.3242Z" fill="white"/>
<path d="M61.7188 48.5352C57.2968 48.5352 53.3981 50.7412 51.0052 54.0913L44.809 50.7027C45.245 49.572 45.5078 48.3555 45.5078 47.0703C45.5078 45.4933 45.1206 44.0159 44.4817 42.68L56.0551 34.9312C57.1205 36.0298 58.6056 36.7188 60.2539 36.7188C63.4853 36.7188 66.1133 34.0908 66.1133 30.8594C66.1133 27.6279 63.4853 25 60.2539 25C57.0225 25 54.3945 27.6279 54.3945 30.8594C54.3945 31.3847 54.4865 31.8844 54.6165 32.3692L42.8501 40.2466C40.9718 38.1573 38.2778 36.8164 35.2539 36.8164C29.6005 36.8164 25 41.4169 25 47.0703C25 51.1452 27.4078 54.6432 30.8594 56.2958V52.9297C30.8594 50.5066 32.8308 48.5352 35.2539 48.5352C33.6388 48.5352 32.3242 47.2206 32.3242 45.6055C32.3242 43.9903 33.6388 42.6758 35.2539 42.6758C36.869 42.6758 38.1836 43.9903 38.1836 45.6055C38.1836 47.2206 36.869 48.5352 35.2539 48.5352C37.677 48.5352 39.6484 50.5066 39.6484 52.9297V56.2958C41.1217 55.5904 42.3859 54.5345 43.3727 53.2555L49.5583 56.638C48.9021 58.2027 48.5352 59.9182 48.5352 61.7188C48.5352 66.2792 50.8652 70.4002 54.3945 72.7684V70.5078C54.3945 66.4696 57.6805 63.1836 61.7188 63.1836C59.2957 63.1836 57.3242 61.2122 57.3242 58.7891C57.3242 56.366 59.2957 54.3945 61.7188 54.3945C64.1418 54.3945 66.1133 56.366 66.1133 58.7891C66.1133 61.2122 64.1418 63.1836 61.7188 63.1836C65.757 63.1836 69.043 66.4696 69.043 70.5078V72.7684C72.5723 70.4002 75 66.2792 75 61.7188C75 54.4491 68.9884 48.5352 61.7188 48.5352Z" fill="white"/>
<path d="M66.1133 70.5078C66.1133 68.0847 64.1418 66.1133 61.7188 66.1133C59.2957 66.1133 57.3242 68.0847 57.3242 70.5078V74.1901C58.7055 74.6826 60.1704 75 61.7188 75C63.2671 75 64.732 74.6826 66.1133 74.1901V70.5078Z" fill="white"/>
<path d="M36.7188 52.9297C36.7188 52.1214 36.0622 51.4648 35.2539 51.4648C34.4456 51.4648 33.7891 52.1214 33.7891 52.9297V57.1762C34.2716 57.246 34.7523 57.3242 35.2539 57.3242C35.7555 57.3242 36.2362 57.246 36.7188 57.1762V52.9297Z" fill="white"/>
</g>
<defs>
<clipPath id="clip0_74_2717">
<rect width="50" height="50" fill="white" transform="translate(25 25)"/>
</clipPath>
</defs>
</svg>
