<svg width="100" height="100" viewBox="0 0 100 100" fill="none" xmlns="http://www.w3.org/2000/svg">
<circle cx="50" cy="50" r="50" fill="#B61635"/>
<g clip-path="url(#clip0_74_2725)">
<path d="M34.789 42.7734C31.5575 42.7734 28.9297 40.1456 28.9297 36.9141C28.9297 33.6825 31.5575 31.0547 34.789 31.0547C38.0205 31.0547 40.6483 33.6825 40.6483 36.9141C40.6483 40.1456 38.0205 42.7734 34.789 42.7734Z" fill="white"/>
<path d="M67.2108 42.7734C63.9794 42.7734 61.3516 40.1456 61.3516 36.9141C61.3516 33.6825 63.9794 31.0547 67.2108 31.0547C70.4423 31.0547 73.0701 33.6825 73.0701 36.9141C73.0701 40.1456 70.4423 42.7734 67.2108 42.7734Z" fill="white"/>
<path d="M50.9999 39.6484C46.9616 39.6484 43.6758 36.3626 43.6758 32.3242C43.6758 28.2858 46.9616 25 50.9999 25C55.0382 25 58.324 28.2858 58.324 32.3242C58.324 36.3626 55.0382 39.6484 50.9999 39.6484Z" fill="white"/>
<path d="M52.4647 39.7969V49.9027C52.4647 50.7124 51.8095 51.3676 50.9998 51.3676C50.1902 51.3676 49.535 50.7124 49.535 49.9027V39.7969C44.579 40.5153 40.7461 44.7509 40.7461 49.9027V58.6918C40.7461 59.5015 41.4013 60.1566 42.2109 60.1566H45.4925L46.6111 73.6586C46.674 74.4167 47.3092 75.0004 48.0702 75.0004H53.9295C54.6905 75.0004 55.3257 74.4167 55.3885 73.6586L56.5072 60.1566H59.7888C60.5984 60.1566 61.2536 59.5015 61.2536 58.6918V49.9027C61.2536 44.7509 57.4206 40.5153 52.4647 39.7969Z" fill="white"/>
<path d="M37.7186 58.8867V50.0977C37.7186 47.902 38.3094 45.8615 39.2626 44.0389C37.9473 43.2537 36.4289 42.7734 34.7889 42.7734C29.9424 42.7734 26 46.7159 26 51.5625V58.8867C26 59.6964 26.6552 60.3516 27.4648 60.3516H29.0684L30.4016 73.6811C30.476 74.4292 31.1069 75 31.8593 75H37.7186C38.471 75 39.1018 74.4292 39.1763 73.6811L40.259 62.8565C38.7634 62.1547 37.7186 60.6452 37.7186 58.8867Z" fill="white"/>
<path d="M75.9992 51.5625C75.9992 46.7159 72.0568 42.7734 67.2103 42.7734C65.5703 42.7734 64.0519 43.2537 62.7366 44.0389C63.6898 45.8615 64.2806 47.902 64.2806 50.0977V58.8867C64.2806 60.6452 63.2358 62.1547 61.7402 62.8565L62.8229 73.6811C62.8973 74.4292 63.5282 75 64.2806 75H70.1399C70.8923 75 71.5232 74.4292 71.5976 73.6811L72.9308 60.3516H74.5344C75.344 60.3516 75.9992 59.6964 75.9992 58.8867V51.5625Z" fill="white"/>
</g>
<defs>
<clipPath id="clip0_74_2725">
<rect width="50" height="50" fill="white" transform="translate(26 25)"/>
</clipPath>
</defs>
</svg>
