<svg width="100" height="100" viewBox="0 0 100 100" fill="none" xmlns="http://www.w3.org/2000/svg">
<circle cx="50" cy="50" r="50" fill="#B61635"/>
<g clip-path="url(#clip0_74_2735)">
<path d="M50 25C36.1929 25 25 36.1929 25 50C25 63.8071 36.1929 75 50 75C63.8071 75 75 63.8071 75 50C75 36.1929 63.8071 25 50 25Z" fill="white"/>
<path d="M49.0312 54.0918C49.0312 57.3486 46.3818 59.998 43.125 59.998C39.8682 59.998 37.2188 57.3486 37.2188 54.0918V46.2168C37.2188 42.96 39.8682 40.3105 43.125 40.3105C46.3818 40.3105 49.0312 42.96 49.0312 46.2168V54.0918Z" fill="#B61635"/>
<path d="M54.9375 44.248C56.0248 44.248 56.9062 45.1295 56.9062 46.2168C56.9062 47.3041 56.0248 48.1855 54.9375 48.1855C53.8502 48.1855 52.9688 47.3041 52.9688 46.2168C52.9688 45.1295 53.8502 44.248 54.9375 44.248Z" fill="#B61635"/>
<path d="M62.8125 56.0605C61.7252 56.0605 60.8438 55.1791 60.8438 54.0918C60.8438 53.0045 61.7252 52.123 62.8125 52.123C63.8998 52.123 64.7812 53.0045 64.7812 54.0918C64.7812 55.1791 63.8998 56.0605 62.8125 56.0605Z" fill="#B61635"/>
<path d="M64.2044 47.6087L56.3294 55.4837C55.5604 56.2527 54.3146 56.2529 53.5455 55.4837C52.7765 54.7147 52.7765 53.4688 53.5455 52.6998L61.4205 44.8248C62.1895 44.0558 63.4354 44.0558 64.2044 44.8248C64.9734 45.5938 64.9736 46.8397 64.2044 47.6087Z" fill="#B61635"/>
<path d="M43.125 44.248C42.0388 44.248 41.1562 45.1306 41.1562 46.2168V54.0918C41.1562 55.178 42.0388 56.0605 43.125 56.0605C44.2112 56.0605 45.0938 55.178 45.0938 54.0918V46.2168C45.0938 45.1306 44.2112 44.248 43.125 44.248Z" fill="white"/>
</g>
<defs>
<clipPath id="clip0_74_2735">
<rect width="50" height="50" fill="white" transform="translate(25 25)"/>
</clipPath>
</defs>
</svg>
