<svg width="46" height="46" viewBox="0 0 46 46" fill="none" xmlns="http://www.w3.org/2000/svg">
<g clip-path="url(#clip0_182_7998)">
<path d="M42.2581 0H3.87098C2.00034 0 0.483887 1.51645 0.483887 3.3871V41.7742C0.483887 43.6448 2.00034 45.1613 3.87098 45.1613H42.2581C44.1287 45.1613 45.6452 43.6448 45.6452 41.7742V3.3871C45.6452 1.51645 44.1287 0 42.2581 0Z" fill="#007BB5"/>
<path fill-rule="evenodd" clip-rule="evenodd" d="M16.7286 17.8388H11.7383V32.821H16.7286V17.8388ZM17.047 13.2098C17.0312 11.7443 15.9733 10.6243 14.2639 10.6243C12.5704 10.6243 11.4526 11.7443 11.4526 13.2098C11.4526 14.647 12.5252 15.7964 14.2041 15.7964H14.2346C15.9733 15.7964 17.0617 14.647 17.0459 13.2109L17.047 13.2098ZM24.4557 19.9681V17.8377H19.4812C19.4812 17.8377 19.541 19.2444 19.4812 32.8222H24.4557V24.4606C24.4557 24.0067 24.5009 23.5686 24.6217 23.2356C24.9852 22.3436 25.8015 21.4212 27.1778 21.4212C28.9775 21.4212 29.7023 22.7975 29.7023 24.8083V32.8222H34.678V24.2336C34.678 19.6373 32.228 17.4899 28.947 17.4899C26.296 17.4899 25.1128 18.9418 24.4557 19.9681Z" fill="white"/>
</g>
<defs>
<clipPath id="clip0_182_7998">
<rect width="45.1613" height="45.1613" fill="white" transform="translate(0.483887)"/>
</clipPath>
</defs>
</svg>
