<svg width="46" height="46" viewBox="0 0 46 46" fill="none" xmlns="http://www.w3.org/2000/svg">
<g clip-path="url(#clip0_182_8003)">
<path d="M42.4192 0H4.03212C2.16147 0 0.64502 1.51645 0.64502 3.3871V41.7742C0.64502 43.6448 2.16147 45.1613 4.03212 45.1613H42.4192C44.2899 45.1613 45.8063 43.6448 45.8063 41.7742V3.3871C45.8063 1.51645 44.2899 0 42.4192 0Z" fill="#E95950"/>
<path fill-rule="evenodd" clip-rule="evenodd" d="M32.207 29.9499C32.2077 30.0712 32.1844 30.1915 32.1383 30.3037C32.0922 30.416 32.0243 30.518 31.9385 30.6038C31.8527 30.6896 31.7507 30.7575 31.6384 30.8036C31.5262 30.8497 31.4059 30.873 31.2846 30.8723H15.1202C14.9989 30.873 14.8786 30.8497 14.7663 30.8036C14.6541 30.7575 14.5521 30.6896 14.4663 30.6038C14.3805 30.518 14.3126 30.416 14.2665 30.3037C14.2204 30.1915 14.197 30.0712 14.1978 29.9499V20.151H16.3305C16.1298 20.7923 16.0278 21.4604 16.028 22.1324C16.028 26.0028 19.2638 29.1324 23.2402 29.1324C27.2325 29.1324 30.4683 26.0028 30.4683 22.1324C30.4683 21.4516 30.3621 20.7708 30.1657 20.151H32.207V29.9499ZM27.9133 21.8897C27.9133 24.3849 25.8268 26.4115 23.2402 26.4115C20.6705 26.4115 18.5829 24.3849 18.5829 21.8897C18.5829 19.3945 20.6705 17.369 23.2402 17.369C25.8257 17.369 27.9133 19.3957 27.9133 21.8897ZM32.207 16.4466C32.2064 16.7231 32.0963 16.9881 31.9008 17.1836C31.7053 17.3792 31.4403 17.4893 31.1638 17.4899H28.5331C28.2566 17.4893 27.9916 17.3792 27.7961 17.1836C27.6006 16.9881 27.4905 16.7231 27.4899 16.4466V13.9515C27.4899 13.3768 27.9584 12.9082 28.5331 12.9082H31.1638C31.7396 12.9082 32.207 13.3768 32.207 13.9515V16.4466ZM34.8376 13.3011C34.8338 12.5124 34.5187 11.7571 33.961 11.1994C33.4033 10.6416 32.648 10.3266 31.8592 10.3228H14.5918C13.803 10.3266 13.0475 10.6416 12.4896 11.1993C11.9317 11.757 11.6165 12.5123 11.6123 13.3011V30.5697C11.6165 31.3585 11.9317 32.1138 12.4896 32.6715C13.0475 33.2292 13.803 33.5442 14.5918 33.5481H31.8592C32.6481 33.5442 33.4035 33.2292 33.9614 32.6715C34.5193 32.1138 34.8346 31.3585 34.8388 30.5697V13.3L34.8376 13.3011Z" fill="white"/>
</g>
<defs>
<clipPath id="clip0_182_8003">
<rect width="45.1613" height="45.1613" fill="white" transform="translate(0.64502)"/>
</clipPath>
</defs>
</svg>
