<svg width="46" height="46" viewBox="0 0 46 46" fill="none" xmlns="http://www.w3.org/2000/svg">
<g clip-path="url(#clip0_182_7988)">
<path d="M41.9353 0H3.54823C1.67759 0 0.161133 1.51645 0.161133 3.3871V41.7742C0.161133 43.6448 1.67759 45.1613 3.54823 45.1613H41.9353C43.806 45.1613 45.3224 43.6448 45.3224 41.7742V3.3871C45.3224 1.51645 43.806 0 41.9353 0Z" fill="#55ACEE"/>
<path fill-rule="evenodd" clip-rule="evenodd" d="M34.6578 14.5565C33.7633 14.9475 32.8153 15.2024 31.8454 15.313C32.8645 14.7069 33.6276 13.7499 33.9917 12.6214C33.0346 13.1908 31.986 13.5896 30.8925 13.8001C30.4355 13.3118 29.883 12.9229 29.2691 12.6576C28.6553 12.3922 27.9934 12.2561 27.3247 12.2578C26.6832 12.2575 26.0479 12.3837 25.4551 12.629C24.8623 12.8743 24.3237 13.2341 23.87 13.6876C23.4163 14.1412 23.0565 14.6798 22.811 15.2725C22.5655 15.8652 22.4392 16.5005 22.4394 17.142C22.4394 17.5202 22.4846 17.8985 22.5602 18.2609C20.6171 18.1622 18.7165 17.6561 16.9815 16.7756C15.2466 15.8951 13.7161 14.6598 12.4892 13.1498C12.0519 13.8974 11.8223 14.7483 11.8242 15.6144C11.8242 17.308 12.6868 18.8051 14.0021 19.6823C13.2277 19.6525 12.4713 19.4397 11.7949 19.0614V19.1223C11.7933 20.2507 12.1825 21.3448 12.8963 22.2187C13.6101 23.0926 14.6044 23.6924 15.7104 23.9162C15.3028 24.0223 14.8636 24.0822 14.4255 24.0822C14.1166 24.0806 13.8082 24.0554 13.5031 24.0065C13.8166 24.9766 14.4252 25.8244 15.244 26.4317C16.0628 27.0389 17.0508 27.3753 18.07 27.3936C16.3412 28.7512 14.2053 29.4866 12.0071 29.4812C11.5973 29.4812 11.2202 29.4654 10.8262 29.4202C13.0633 30.8583 15.6681 31.6196 18.3275 31.6128C27.31 31.6128 32.2236 24.1725 32.2236 17.7167C32.2236 17.5044 32.2236 17.2933 32.2089 17.0811C33.1616 16.3832 33.9888 15.5297 34.6578 14.5565Z" fill="white"/>
</g>
<defs>
<clipPath id="clip0_182_7988">
<rect width="45.1613" height="45.1613" fill="white" transform="translate(0.161133)"/>
</clipPath>
</defs>
</svg>
