<svg width="46" height="46" viewBox="0 0 46 46" fill="none" xmlns="http://www.w3.org/2000/svg">
<g clip-path="url(#clip0_182_7993)">
<path d="M42.0969 0H3.70985C1.83921 0 0.322754 1.51645 0.322754 3.3871V41.7742C0.322754 43.6448 1.83921 45.1613 3.70985 45.1613H42.0969C43.9676 45.1613 45.484 43.6448 45.484 41.7742V3.3871C45.484 1.51645 43.9676 0 42.0969 0Z" fill="#BB0000"/>
<path fill-rule="evenodd" clip-rule="evenodd" d="M25.8871 26.713C25.8871 26.048 25.6907 25.7003 25.2978 25.7003C25.0709 25.7003 24.8439 25.8064 24.617 26.0333V30.5845C24.8428 30.8114 25.0709 30.9175 25.2978 30.9175C25.6907 30.9175 25.8871 30.5844 25.8871 29.9048V26.713ZM30.9983 26.7288C30.9983 26.048 30.7713 25.7014 30.3175 25.7014C29.8636 25.7014 29.6367 26.048 29.6367 26.7288V27.4243H30.9983V26.7288ZM16.3909 23.432V32.0364H14.878V23.4332H13.2917V22.0106H18.0088V23.4332L16.3909 23.432ZM20.7455 32.0364V31.2201C20.2013 31.8399 19.6876 32.1425 19.2033 32.1425C18.7652 32.1425 18.4468 31.9619 18.326 31.5825C18.2504 31.3567 18.2052 31.0078 18.2052 30.4794V24.5667H19.551V30.0707C19.551 30.388 19.551 30.5551 19.5668 30.6003C19.5962 30.8114 19.7023 30.9175 19.883 30.9175C20.1562 30.9175 20.443 30.7053 20.7455 30.2819V24.5678H22.0913V32.0375H20.7467L20.7455 32.0364ZM27.233 29.7986C27.233 30.4941 27.2025 30.9932 27.0975 31.3115C26.9304 31.8546 26.5521 32.1425 26.0226 32.1425C25.5394 32.1425 25.0709 31.8704 24.617 31.3104V32.0364H23.2712V22.0106H24.617V25.2927C25.0551 24.7485 25.5236 24.4764 26.0226 24.4764C26.5533 24.4764 26.9304 24.7632 27.0963 25.3232C27.2025 25.6246 27.2318 26.1248 27.2318 26.8191L27.233 29.7986ZM32.3441 29.6474C32.3441 30.0854 32.3441 30.388 32.3136 30.5246C32.2787 30.8192 32.1696 31.1001 31.9963 31.3409C31.6328 31.8704 31.0739 32.1425 30.3626 32.1425C29.6513 32.1425 29.123 31.8851 28.7301 31.3714C28.4421 31.0078 28.2909 30.4185 28.2909 29.6169V27.0009C28.2909 26.1993 28.4263 25.6246 28.7142 25.2475C29.1083 24.7327 29.6367 24.4764 30.3321 24.4764C31.013 24.4764 31.5425 24.7327 31.9354 25.2475C32.2075 25.6246 32.3441 26.1993 32.3441 27.0009V28.559H29.6367V29.8743C29.6367 30.5698 29.8636 30.9175 30.3321 30.9175C30.6652 30.9175 30.8628 30.7369 30.9373 30.3733C30.952 30.2977 30.9678 29.9951 30.9678 29.4509H32.3441V29.6474ZM23.1504 15.8415C23.1504 16.537 22.9539 16.9006 22.5001 16.9006C22.0609 16.9006 21.8497 16.537 21.8497 15.8415V12.6678C21.8497 11.9724 22.0609 11.6246 22.5001 11.6246C22.9539 11.6246 23.1504 11.9724 23.1504 12.6678V15.8415ZM34.023 27.1974C34.023 25.444 34.023 23.5991 33.6289 21.9056C33.3568 20.7111 32.3734 19.8338 31.2094 19.6972C28.4275 19.3957 25.6151 19.3957 22.8173 19.3957C20.0196 19.3957 17.2071 19.3957 14.4399 19.6972C13.2612 19.8338 12.2936 20.7111 12.0057 21.9056C11.6275 23.5991 11.6128 25.444 11.6128 27.1974C11.6128 28.9361 11.6128 30.7967 12.0057 32.4903C12.2778 33.6848 13.2612 34.562 14.4252 34.6828C17.2071 35.0001 20.0196 35.0001 22.8173 35.0001C25.6151 35.0001 28.4275 35.0001 31.2094 34.6828C32.3734 34.562 33.3421 33.6848 33.6289 32.4903C34.0071 30.7967 34.0218 28.9361 34.0218 27.1974H34.023ZM18.9301 7.90332L17.9026 11.8798L16.8289 7.90332H15.2257C15.543 8.84042 15.876 9.79332 16.208 10.7304C16.6923 12.1372 16.9949 13.1962 17.1304 13.9369V18.0353H18.6433V13.9369L20.4734 7.90332H18.9301ZM24.5255 12.9388C24.5255 12.1372 24.3889 11.5478 24.1021 11.1696C23.7239 10.6559 23.1944 10.3985 22.4989 10.3985C21.8181 10.3985 21.2886 10.6559 20.9115 11.1696C20.6236 11.5478 20.4881 12.1372 20.4881 12.9388V15.5853C20.4881 16.3869 20.6236 16.9762 20.9115 17.3691C21.2886 17.8828 21.8181 18.1403 22.4989 18.1403C23.1944 18.1403 23.7239 17.8828 24.1021 17.3691C24.3889 16.9909 24.5255 16.3869 24.5255 15.5853V12.9388ZM29.5904 10.4888H28.2141V16.2503C27.9126 16.6883 27.6247 16.9006 27.3526 16.9006C27.172 16.9006 27.0659 16.7798 27.0354 16.5675C27.0196 16.537 27.0196 16.3564 27.0196 16.038V10.4888H25.6467V16.4467C25.6467 16.9909 25.6918 17.3544 25.7675 17.5803C25.903 17.9585 26.2213 18.1403 26.6594 18.1403C27.1584 18.1403 27.6721 17.8377 28.2175 17.2032V18.0341H29.5926V10.4888H29.5904Z" fill="white"/>
</g>
<defs>
<clipPath id="clip0_182_7993">
<rect width="45.1613" height="45.1613" fill="white" transform="translate(0.322754)"/>
</clipPath>
</defs>
</svg>
