<svg width="46" height="46" viewBox="0 0 46 46" fill="none" xmlns="http://www.w3.org/2000/svg">
<g clip-path="url(#clip0_182_7983)">
<path d="M41.7742 0H3.3871C1.51645 0 0 1.51645 0 3.3871V41.7742C0 43.6448 1.51645 45.1613 3.3871 45.1613H41.7742C43.6448 45.1613 45.1613 43.6448 45.1613 41.7742V3.3871C45.1613 1.51645 43.6448 0 41.7742 0Z" fill="#3B5998"/>
<path fill-rule="evenodd" clip-rule="evenodd" d="M28.8707 10.342C28.4631 10.2833 27.0563 10.1614 25.4237 10.1614C22.0062 10.1614 19.6623 12.2478 19.6623 16.0741V19.3709H15.8066V23.8464H19.6623V35.323H24.2891V23.8452H28.13L28.7205 19.3686H24.2891V16.5111C24.2891 15.2262 24.6368 14.3332 26.4974 14.3332H28.8707V10.3432V10.342Z" fill="white"/>
</g>
<defs>
<clipPath id="clip0_182_7983">
<rect width="45.1613" height="45.1613" fill="white"/>
</clipPath>
</defs>
</svg>
