<svg width="455" height="370" viewBox="0 0 455 370" fill="none" xmlns="http://www.w3.org/2000/svg">
<path fill-rule="evenodd" clip-rule="evenodd" d="M244.47 14.5939L443.219 171.592C446.376 174.086 447.552 178.117 446.233 181.917C444.913 185.717 441.491 188.151 437.468 188.151H390.3V346.398H87.1388V188.151H39.9701C35.9475 188.151 32.5258 185.717 31.2056 181.917C29.8859 178.117 31.0624 174.086 34.2192 171.592L232.968 14.5939C236.382 11.8977 241.056 11.8977 244.47 14.5939ZM69.0426 363.198C69.0426 359.442 72.0877 356.397 75.844 356.397H401.595C405.351 356.397 408.396 359.442 408.396 363.198C408.396 366.955 405.351 370 401.595 370H75.844C72.0877 370 69.0426 366.955 69.0426 363.198Z" fill="#B61635" fill-opacity="0.08"/>
<path fill-rule="evenodd" clip-rule="evenodd" d="M344.277 215.997C342.531 213.697 339.104 209.747 337.198 205.104C335.292 200.461 334.906 195.124 335.035 189.434C335.163 183.743 335.806 177.699 338.861 171.494C341.915 165.289 347.38 158.923 351.032 155.385C354.684 151.847 356.521 151.136 357.619 149.786C358.716 148.437 359.074 146.449 359.264 144.827C359.455 143.205 359.478 141.95 364.071 140.984C368.664 140.019 377.827 139.344 382.526 139.36C387.225 139.376 387.461 140.083 387.847 141.24C388.233 142.398 388.768 144.005 391.544 145.227C394.32 146.449 399.335 147.285 404.048 150.188C408.761 153.091 413.17 158.062 415.713 165.804C418.255 173.546 418.931 184.059 418.899 191.322C418.868 198.585 418.13 202.598 417.549 204.952C416.967 207.305 416.542 207.998 408.38 209.656C400.218 211.313 384.319 213.935 373.204 215.355C362.089 216.775 355.76 216.993 352.049 217.5C348.339 218.007 347.246 218.804 346.668 218.876C346.089 218.949 346.023 218.297 344.277 215.997V215.997Z" fill="#FCC565"/>
<path fill-rule="evenodd" clip-rule="evenodd" d="M340.919 190.656C341.562 187.183 342.719 181.589 344.134 177.892C345.548 174.195 347.22 172.394 350.339 170.24C353.457 168.086 358.023 165.578 365.192 163.456C372.362 161.335 382.136 159.598 389.401 159.502C396.667 159.405 401.425 160.949 405.023 163.264C408.62 165.58 411.057 168.668 412.729 171.176C414.4 173.684 415.307 175.611 415.632 177.469C415.957 179.328 415.7 181.118 415.707 183.279C415.714 185.44 415.984 187.971 414.345 188.234C412.705 188.496 409.155 186.489 402.139 184.907C395.124 183.325 384.643 182.168 374.451 183.486C364.26 184.804 354.358 188.598 348.667 191.234C342.976 193.871 341.498 195.349 340.822 195.414C340.147 195.478 340.276 194.128 340.919 190.656V190.656Z" fill="#FC9A46"/>
<path fill-rule="evenodd" clip-rule="evenodd" d="M344.277 216.244C342.531 214.141 339.104 210.529 337.198 206.284C336.276 204.232 335.71 202.031 335.386 199.718C335.832 196.07 336.795 192.301 338.86 188.465C341.915 182.791 347.38 176.971 353.682 172.62C359.983 168.269 367.12 165.388 375.704 164.712C384.288 164.036 394.32 165.564 401.361 168.592C408.401 171.62 412.643 176.579 415.442 182.909C418.242 189.238 418.016 197.011 418.86 203.089C418.658 203.95 418.043 205.05 417.392 206.612C416.742 208.174 417.532 208.388 408.875 210.175C400.218 211.961 384.319 214.359 373.204 215.657C362.089 216.956 355.76 217.155 352.049 217.619C348.338 218.083 348.501 218.376 347.922 218.442C347.344 218.508 346.023 218.347 344.277 216.244V216.244Z" fill="#FC9A46"/>
<path fill-rule="evenodd" clip-rule="evenodd" d="M389.119 250.331C391.163 248.832 394.057 249.885 395.582 252.687L404.913 269.803C406.441 272.605 406.021 276.091 403.98 277.59C401.939 279.089 399.04 278.036 397.514 275.236L388.184 258.119C386.658 255.318 387.077 251.831 389.119 250.331V250.331Z" fill="white"/>
<rect x="366.044" y="270.286" width="9.69712" height="60.9524" fill="#C4211A"/>
<path fill-rule="evenodd" clip-rule="evenodd" d="M383.36 270.286H393.057V331.239H383.36V270.286Z" fill="#C4211A"/>
<rect x="373.663" y="241.888" width="12.4673" height="9.69712" fill="#FFD1A4"/>
<path fill-rule="evenodd" clip-rule="evenodd" d="M378.188 243.111L386.76 238.358L386.216 248.733L378.188 243.111Z" fill="#C77869"/>
<path fill-rule="evenodd" clip-rule="evenodd" d="M387.814 146.208C387.027 147.59 385.966 151.287 385.387 153.634C384.808 155.982 384.712 156.978 384.873 156.769C385.033 156.56 385.451 155.145 386.432 153.458C387.413 151.77 388.956 149.808 389.583 148.635C390.209 147.462 389.92 147.076 389.518 146.417C389.116 145.758 388.602 144.825 387.814 146.208Z" fill="#FC9A46"/>
<path fill-rule="evenodd" clip-rule="evenodd" d="M366.402 149.705L366.406 149.747C366.416 149.883 366.543 149.981 366.666 149.984C366.775 149.986 367.983 149.882 368.155 149.868C368.237 149.862 368.32 149.855 368.403 149.849C368.555 149.837 368.666 149.876 368.721 150.019C368.754 150.104 368.817 151.102 368.829 151.247L369.061 154.225C369.071 154.351 369.078 154.614 369.108 154.712C369.15 154.852 369.277 154.907 369.422 154.896L374.302 154.515C374.392 154.507 374.464 154.477 374.51 154.429C374.52 154.419 374.516 154.423 374.524 154.411C374.565 154.356 374.593 154.303 374.588 154.226L374.264 150.09C374.024 150.108 373.974 149.952 373.894 149.764C373.84 149.636 373.792 149.5 373.716 149.384C373.711 149.376 373.706 149.367 373.7 149.358L373.582 149.217C373.55 149.186 373.532 149.164 373.496 149.136L373.348 149.039C373.323 149.023 373.316 149.021 373.289 149.008C372.97 148.857 372.677 148.875 372.353 148.996C372.12 149.083 371.91 149.196 371.698 149.316L371.527 149.417C371.509 149.428 371.507 149.428 371.489 149.439C371.183 149.623 370.896 149.845 370.617 150.067C370.419 150.224 370.211 150.085 370.2 149.95C370.19 149.823 370.217 149.795 370.3 149.665L370.69 149.049C370.791 148.9 370.926 148.706 371.043 148.57L371.119 148.473C371.214 148.36 371.325 148.213 371.431 148.115L371.597 147.94C371.653 147.88 371.71 147.829 371.77 147.772L372.042 147.533C372.057 147.52 372.071 147.508 372.087 147.495C372.105 147.481 372.12 147.471 372.14 147.456C372.218 147.394 372.45 147.223 372.549 147.172L372.774 147.048C372.849 147.009 372.925 146.969 373.007 146.938C373.181 146.872 373.358 146.797 373.547 146.766C373.644 146.751 373.755 146.724 373.859 146.717C374.539 146.668 375.2 146.604 375.876 146.551C376.038 146.538 376.406 146.499 376.539 146.499C376.946 146.498 376.956 146.661 377.258 146.768C377.442 146.833 377.715 146.831 377.893 146.731L378.382 146.478C378.575 146.383 378.613 146.345 378.88 146.324L379.574 146.27C379.656 146.264 379.733 146.32 379.765 146.372C379.804 146.434 379.805 146.552 379.812 146.651C379.828 146.855 379.844 147.059 379.86 147.263C379.876 147.462 379.899 147.651 379.915 147.858L379.999 148.933C380.005 149.006 379.949 149.074 379.902 149.105C379.835 149.148 379.759 149.144 379.658 149.151C379.458 149.167 378.951 149.25 378.754 149.18L378.317 149.041C378.29 149.033 378.271 149.028 378.244 149.018C378.018 148.937 377.958 148.927 377.711 148.946C377.576 148.957 377.419 149.05 377.338 149.113C377.235 149.194 377.173 149.289 377.104 149.399L376.906 149.716C376.837 149.824 376.677 149.865 376.689 150.025L377.004 154.045C377.016 154.212 377.175 154.29 377.33 154.278L382.218 153.895C382.348 153.885 382.476 153.794 382.489 153.664C382.503 153.526 382.399 152.377 382.384 152.185L382.15 149.198C382.139 149.053 382.11 148.901 382.239 148.811C382.306 148.763 382.333 148.759 382.44 148.751C382.684 148.732 384.086 148.633 384.173 148.612C384.39 148.56 384.451 148.3 384.309 148.145C384.27 148.104 384.143 148.034 384.089 147.996C384.063 147.978 384.042 147.963 384.015 147.946L383.714 147.748C383.514 147.614 383.311 147.486 383.114 147.348L382.366 146.85C382.317 146.818 382.27 146.785 382.218 146.753L381.471 146.255C381.421 146.222 381.374 146.189 381.323 146.157C380.968 145.933 380.63 145.682 380.274 145.46C380.071 145.333 379.876 145.189 379.674 145.061L379.231 144.766C378.976 144.606 378.729 144.43 378.477 144.267L378.182 144.07C378.129 144.035 378.088 144.006 378.035 143.972C378.007 143.955 377.987 143.94 377.961 143.922L377.281 143.472C377.252 143.449 377.236 143.443 377.207 143.423L376.912 143.226C376.886 143.207 376.865 143.196 376.838 143.177L376.464 142.928C376.194 142.741 375.915 142.566 375.643 142.381C375.443 142.246 375.24 142.12 375.042 141.982C374.975 141.934 374.911 141.916 374.815 141.923C374.696 141.932 374.602 142.057 374.518 142.132L374.187 142.435C374.163 142.458 374.147 142.474 374.122 142.496C374.097 142.517 374.079 142.534 374.056 142.556L373.399 143.159C373.376 143.181 373.357 143.197 373.333 143.219C373.311 143.241 373.293 143.258 373.269 143.279L372.406 144.07C372.393 144.083 372.392 144.087 372.377 144.1L372.14 144.314C372.117 144.334 372.098 144.352 372.076 144.374C371.971 144.475 371.766 144.646 371.683 144.734C371.621 144.799 371.55 144.856 371.483 144.917L371.353 145.038C371.33 145.062 371.311 145.074 371.287 145.097C371.265 145.119 371.245 145.137 371.222 145.157C371.086 145.277 370.958 145.407 370.822 145.525L369.768 146.492C369.744 146.514 369.726 146.531 369.703 146.553C369.68 146.575 369.66 146.59 369.637 146.613L367.657 148.431C367.484 148.595 367.301 148.749 367.129 148.915C367.022 149.017 366.902 149.111 366.8 149.219C366.727 149.295 366.614 149.39 366.533 149.462C366.514 149.48 366.487 149.503 366.469 149.523C366.432 149.565 366.397 149.631 366.402 149.705V149.705Z" fill="#ED2524"/>
<path fill-rule="evenodd" clip-rule="evenodd" d="M343.587 213.308L342.118 211.839C338.743 208.464 336.844 203.88 336.844 199.104C336.844 194.329 338.743 189.745 342.118 186.37L372.484 156.005C375.86 152.63 380.443 150.73 385.219 150.73C389.994 150.73 394.578 152.63 397.953 156.005L399.422 157.474C402.799 160.849 404.699 165.436 404.699 170.213C404.699 172.596 404.224 174.958 403.307 177.157C403.972 177.594 404.575 178.126 405.089 178.734L416.255 190.503C420.144 194.978 419.824 208.641 415.349 212.529C410.875 216.416 406.681 213.138 402.791 208.664L391.429 195.6C390.684 194.745 390.078 193.771 389.636 192.726L369.056 213.308C365.681 216.683 361.097 218.583 356.322 218.583C351.546 218.583 346.962 216.683 343.587 213.308V213.308V213.308Z" fill="#32183A"/>
<path fill-rule="evenodd" clip-rule="evenodd" d="M378.927 173.17V169.083C378.927 169.083 390.286 156.299 398.79 166.284C407.295 176.269 399.266 182.713 399.266 182.713L378.927 173.334V173.17Z" fill="#12061B"/>
<ellipse cx="354.269" cy="217.645" rx="8.31154" ry="9.00457" fill="#FFC69B"/>
<ellipse cx="407.603" cy="217.645" rx="8.31154" ry="9.00457" fill="#FFC69B"/>
<path fill-rule="evenodd" clip-rule="evenodd" d="M407.602 198.598V216.607C407.602 231.332 395.661 243.274 380.936 243.274C366.211 243.274 354.27 231.332 354.27 216.607L354.269 198.598C354.27 183.873 366.211 171.932 380.936 171.932C395.661 171.932 407.602 183.873 407.602 198.598Z" fill="url(#paint0_linear_74_2863)"/>
<circle cx="388.901" cy="209.334" r="9.00457" fill="white"/>
<circle cx="368.815" cy="209.334" r="9.00457" fill="white"/>
<path fill-rule="evenodd" clip-rule="evenodd" d="M352.957 211.141C352.931 211.142 352.903 211.142 352.877 211.142C349.455 211.142 346.16 209.835 343.668 207.492L372.851 158.923C374.686 160.458 376.164 162.385 377.174 164.553C378.306 166.971 379.043 169.568 379.339 172.222C379.49 173.526 379.568 174.854 379.568 176.173C379.568 177.854 379.439 179.544 379.194 181.204C378.718 184.482 377.832 187.706 376.588 190.774C375.406 193.722 373.875 196.547 372.051 199.144C370.396 201.513 368.435 203.68 366.242 205.568C364.284 207.26 362.073 208.656 359.697 209.687C357.574 210.619 355.277 211.115 352.958 211.14L352.957 211.141V211.141Z" fill="#32183A"/>
<circle cx="370.817" cy="209.407" r="4.85103" transform="rotate(6.02399 370.817 209.407)" fill="#32183A"/>
<circle cx="386.742" cy="209.403" r="4.85103" transform="rotate(173.976 386.742 209.403)" fill="#32183A"/>
<circle cx="368.419" cy="216.557" r="5.93702" fill="url(#paint1_linear_74_2863)"/>
<circle cx="390.459" cy="216.971" r="5.52273" fill="url(#paint2_linear_74_2863)"/>
<path fill-rule="evenodd" clip-rule="evenodd" d="M372.659 216.84C372.659 214.342 370.634 212.316 368.136 212.316C365.638 212.316 363.613 214.342 363.613 216.84C363.613 219.338 365.638 221.363 368.136 221.363C370.634 221.363 372.659 219.338 372.659 216.84Z" fill="#FFAD8C"/>
<path fill-rule="evenodd" clip-rule="evenodd" d="M394.93 217.234C394.93 214.91 392.928 213.026 390.459 213.026C387.99 213.026 385.988 214.91 385.988 217.234C385.988 219.558 387.99 221.442 390.459 221.442C392.928 221.442 394.93 219.558 394.93 217.234Z" fill="#FFAD8C"/>
<path d="M376.78 217.299C377.511 218.298 378.434 219.148 379.488 219.796C379.989 220.041 380.54 220.168 381.098 220.168C381.655 220.168 382.207 220.041 382.708 219.797" stroke="#32183A" stroke-width="0.357968"/>
<path fill-rule="evenodd" clip-rule="evenodd" d="M384.256 184.32L392.486 185.476C394.191 185.716 395.379 187.293 395.139 188.997V188.997C394.9 190.701 393.323 191.889 391.619 191.649L383.388 190.492C381.684 190.253 380.496 188.677 380.736 186.972H380.735C380.975 185.268 382.552 184.08 384.256 184.32Z" fill="#32183A"/>
<path fill-rule="evenodd" clip-rule="evenodd" d="M367.327 189.503L375.627 189.938C377.347 190.028 378.668 191.495 378.578 193.213H378.577C378.487 194.932 377.02 196.253 375.302 196.163L367.001 195.728C365.283 195.638 363.962 194.171 364.052 192.452H364.052C364.142 190.734 365.609 189.413 367.328 189.503H367.327Z" fill="#32183A"/>
<path fill-rule="evenodd" clip-rule="evenodd" d="M393.75 267.516H365.352V259.204C365.352 253.849 369.694 249.507 375.049 249.507H384.053C389.408 249.507 393.75 253.849 393.75 259.204L393.75 267.516Z" fill="white"/>
<path fill-rule="evenodd" clip-rule="evenodd" d="M379.551 281.369C379.512 281.369 379.467 281.369 379.428 281.369C375.757 281.369 372.215 279.992 369.508 277.513C366.876 275.136 365.366 271.756 365.352 268.209C365.352 267.979 365.358 267.745 365.372 267.516H393.73C393.744 267.75 393.75 267.982 393.75 268.209C393.737 271.756 392.227 275.136 389.595 277.513C386.888 279.993 383.346 281.369 379.675 281.369C379.635 281.369 379.59 281.369 379.551 281.369V281.369V281.369Z" fill="#C4211A"/>
<path fill-rule="evenodd" clip-rule="evenodd" d="M373.444 249.507V249.507C374.782 249.507 375.868 250.593 375.868 251.931L375.868 266.477C375.868 267.815 374.782 268.901 373.444 268.901L373.444 268.901C372.106 268.901 371.02 267.815 371.02 266.477L371.02 251.932C371.02 250.593 372.106 249.507 373.444 249.507L373.444 249.507Z" fill="#C4211A"/>
<path fill-rule="evenodd" clip-rule="evenodd" d="M387.297 249.507V249.507C388.636 249.507 389.721 250.593 389.721 251.931L389.721 266.477C389.721 267.815 388.636 268.901 387.297 268.901L387.297 268.901C385.959 268.901 384.873 267.815 384.873 266.477L384.873 251.932C384.873 250.593 385.959 249.507 387.297 249.507L387.297 249.507Z" fill="#C4211A"/>
<circle cx="373.444" cy="267.516" r="2.42416" fill="#FCC565"/>
<circle cx="387.297" cy="267.516" r="2.42416" fill="#FCC565"/>
<rect x="361.889" y="276.52" width="9.00457" height="20.7793" fill="#FFD3A6"/>
<path fill-rule="evenodd" clip-rule="evenodd" d="M366.391 250.199V250.199C368.877 250.199 370.893 252.215 370.893 254.702V276.867C370.893 279.352 368.877 281.368 366.391 281.368V281.368C363.905 281.368 361.889 279.352 361.889 276.866L361.889 254.702C361.889 252.215 363.905 250.199 366.391 250.199Z" fill="white"/>
<path fill-rule="evenodd" clip-rule="evenodd" d="M356.03 305.885H353.548C353.328 305.262 353.216 304.604 353.216 303.943C353.216 300.72 355.828 298.105 359.052 298.103H368.686C371.91 298.105 374.522 300.72 374.522 303.943C374.522 304.604 374.409 305.261 374.19 305.884L372.111 305.884V303.207C372.112 302.059 371.182 301.128 370.034 301.128L358.107 301.129C356.96 301.128 356.029 302.059 356.029 303.206V305.884L356.03 305.885V305.885Z" fill="#7EA0A0"/>
<path fill-rule="evenodd" clip-rule="evenodd" d="M351.549 305.647L378.139 306.425L375.526 329.317H354.469L351.549 305.647Z" fill="#C4211A"/>
<path fill-rule="evenodd" clip-rule="evenodd" d="M352.304 303.953L377.203 304.825C377.98 304.852 378.587 305.504 378.56 306.28L378.56 306.28C378.532 307.056 377.881 307.664 377.105 307.637L352.206 306.764C351.43 306.737 350.823 306.085 350.85 305.309L350.85 305.309C350.877 304.533 351.529 303.925 352.305 303.952L352.304 303.953Z" fill="#E9602F"/>
<ellipse cx="373.317" cy="307.689" rx="2.42416" ry="1.3851" fill="#E9602F"/>
<path fill-rule="evenodd" clip-rule="evenodd" d="M372.971 304.225H373.663C374.429 304.225 375.049 304.846 375.049 305.611H375.049C375.049 306.376 374.429 306.996 373.664 306.996H372.971C372.206 306.996 371.585 306.376 371.585 305.611V305.611C371.585 304.846 372.206 304.225 372.971 304.225H372.971Z" fill="#7EA0A0"/>
<path fill-rule="evenodd" clip-rule="evenodd" d="M353.923 297.299H374.01C374.967 297.299 375.742 298.074 375.742 299.03H375.741C375.742 299.987 374.967 300.763 374.01 300.763H353.923C352.967 300.763 352.192 299.987 352.192 299.03H352.191C352.192 298.074 352.967 297.299 353.923 297.299L353.923 297.299Z" fill="#C0221E"/>
<path fill-rule="evenodd" clip-rule="evenodd" d="M365.736 329.321C363.627 326.951 362.459 323.881 362.459 320.706C362.459 320.609 362.461 320.508 362.462 320.413C362.462 314.087 366.416 308.957 371.295 308.957C373.752 309.03 376.038 310.241 377.477 312.232L375.797 329.321H365.736V329.321Z" fill="#DA362C" fill-opacity="0.65098"/>
<path fill-rule="evenodd" clip-rule="evenodd" d="M368.089 329.317C366.784 327.482 366.082 325.281 366.082 323.028C366.082 317.033 370.94 312.174 376.934 312.173C377.117 312.173 377.301 312.178 377.482 312.187L375.527 329.317H368.089V329.317Z" fill="#E2412F"/>
<ellipse cx="367.083" cy="297.299" rx="5.1948" ry="5.54112" transform="rotate(-61 367.083 297.299)" fill="#FFD3A6"/>
<ellipse cx="401.442" cy="272.346" rx="5.88743" ry="5.88746" transform="rotate(19 401.442 272.346)" fill="#E6E6E6"/>
<path fill-rule="evenodd" clip-rule="evenodd" d="M419.676 246.94V246.94C421.681 248.397 422.125 251.203 420.669 253.208L405.043 274.715C403.586 276.72 400.78 277.165 398.775 275.708V275.708C396.77 274.252 396.326 271.445 397.783 269.44L413.408 247.933C414.865 245.928 417.672 245.484 419.676 246.94H419.676Z" fill="#FFD1A4"/>
<path fill-rule="evenodd" clip-rule="evenodd" d="M426.724 233.4L429.933 229.438C430.166 229.161 430.488 228.972 430.844 228.902C431.269 228.819 431.71 228.915 432.063 229.165V229.165L432.092 229.188C432.151 229.226 432.208 229.268 432.263 229.312C432.292 229.336 432.32 229.361 432.348 229.385L449.799 242.829C450.126 243.068 450.538 243.159 450.936 243.082C451.264 243.018 451.561 242.843 451.776 242.586C452.046 242.277 452.161 241.86 452.086 241.456C452.085 241.456 452.085 241.455 452.085 241.455C452.027 241.152 451.858 240.881 451.613 240.693L448.913 238.612L450.564 236.456L453.212 238.495C453.964 239.071 454.48 239.903 454.661 240.833C454.661 240.834 454.661 240.835 454.661 240.835C454.89 242.073 454.54 243.349 453.711 244.297C453.053 245.082 452.143 245.619 451.136 245.815C449.917 246.052 448.655 245.771 447.652 245.041L431.654 232.714L429.366 235.537C429.114 235.848 428.761 236.06 428.369 236.137C427.448 236.316 426.555 235.714 426.376 234.793C426.28 234.3 426.407 233.789 426.723 233.398L426.724 233.4V233.4Z" fill="#8AADBB"/>
<path fill-rule="evenodd" clip-rule="evenodd" d="M405.529 258.502C405.529 258.5 405.528 258.497 405.528 258.494C405.376 257.714 405.584 256.906 406.094 256.297L425.513 233.033L429.547 236.435L410.127 259.699C409.741 260.162 409.206 260.479 408.614 260.594C407.835 260.745 407.028 260.535 406.422 260.022C405.96 259.632 405.645 259.095 405.529 258.502H405.529V258.502Z" fill="#D7382C"/>
<circle cx="408.408" cy="257.48" r="1.27446" transform="rotate(20 408.408 257.48)" fill="white"/>
<path fill-rule="evenodd" clip-rule="evenodd" d="M422.822 215.351L425.877 217.652C426.439 218.076 426.551 218.876 426.128 219.438H426.128C425.704 220 424.905 220.113 424.343 219.689L421.288 217.387C420.726 216.964 420.614 216.165 421.037 215.602L421.038 215.602C421.461 215.04 422.261 214.928 422.822 215.351V215.351Z" fill="#8AADBB"/>
<path fill-rule="evenodd" clip-rule="evenodd" d="M428.611 216.264L450.656 232.875C451.878 233.796 452.122 235.533 451.202 236.755L449.933 238.438C449.012 239.661 447.275 239.904 446.053 238.984L424.008 222.372C422.787 221.451 422.543 219.715 423.464 218.492L424.732 216.809C425.653 215.587 427.39 215.344 428.612 216.264L428.611 216.264Z" fill="#CEA17F"/>
<ellipse cx="416.61" cy="249.429" rx="5.54111" ry="5.54114" transform="rotate(19 416.61 249.429)" fill="#FFD1A4"/>
<path fill-rule="evenodd" clip-rule="evenodd" d="M373.663 346.477H356.001C355.045 346.477 354.27 345.702 354.27 344.745C354.27 343.789 355.045 343.013 356.002 343.013H375.741V346.477H373.663V346.477Z" fill="#DDDEF5"/>
<path fill-rule="evenodd" clip-rule="evenodd" d="M366.044 343.706H354.962C354.962 339.122 359.585 335.394 365.265 335.394C365.524 335.394 365.785 335.402 366.044 335.418V331.239H375.741V343.706H366.044Z" fill="#FCC666"/>
<circle cx="370.893" cy="337.472" r="2.77067" fill="#FEFEF7"/>
<path fill-rule="evenodd" clip-rule="evenodd" d="M385.438 343.013H403.101C404.056 343.013 404.832 343.789 404.832 344.745C404.832 345.702 404.056 346.477 403.1 346.477H383.36V343.013H385.438V343.013Z" fill="#DDDEF5"/>
<path fill-rule="evenodd" clip-rule="evenodd" d="M393.057 343.706H404.14C404.14 339.122 399.517 335.394 393.836 335.394C393.577 335.394 393.316 335.402 393.057 335.418V331.239H383.36V343.706H393.057Z" fill="#FCC565"/>
<circle cx="388.209" cy="337.472" r="2.77067" fill="#FEFEF7"/>
<path fill-rule="evenodd" clip-rule="evenodd" d="M362.861 147.445C363.649 148.828 364.71 152.525 365.288 154.873C365.867 157.219 365.964 158.216 365.803 158.007C365.642 157.798 365.224 156.383 364.243 154.696C363.263 153.008 361.72 151.047 361.093 149.873C360.466 148.7 360.755 148.314 361.157 147.655C361.559 146.995 362.073 146.063 362.861 147.445Z" fill="#FC9A46"/>
<rect x="287.602" y="249.583" width="9.53245" height="6.35513" fill="#FFC7A2"/>
<path fill-rule="evenodd" clip-rule="evenodd" d="M290.548 249.98L297.135 246.687V253.274L290.548 249.98Z" fill="#C77869"/>
<path fill-rule="evenodd" clip-rule="evenodd" d="M264.823 253.635C261.557 253.292 256.297 252.802 252.458 248.939C246.812 243.26 243.123 231.178 248.22 223.978C252.887 217.39 255.317 210.14 258.085 205.239C258.093 205.087 258.103 204.934 258.115 204.781L259.672 185.278C259.807 183.528 260.265 181.816 261.018 180.232C261.435 179.119 261.975 178.045 262.619 177.046C264.404 174.352 266.745 172.057 269.471 170.321C269.955 169.999 270.452 169.689 270.963 169.393C270.626 167.825 270.452 166.212 270.452 164.606C270.452 164.603 270.452 164.592 270.452 164.59C270.453 152.376 280.142 142.477 292.095 142.477C304.048 142.477 313.737 152.376 313.737 164.589C313.737 164.591 313.737 164.602 313.737 164.605C313.737 166.212 313.562 167.824 313.225 169.391C313.734 169.689 314.231 169.998 314.716 170.319C315.897 171.094 317.022 171.972 318.065 172.923C321.081 175.005 323.109 178.239 323.669 181.86C323.92 182.877 324.06 183.928 324.083 184.975L326.501 203.701C326.58 204.321 326.622 204.946 326.622 205.57C326.622 205.794 326.614 206.022 326.605 206.244C329.159 211.098 331.568 217.829 335.926 223.983C341.024 231.179 337.334 243.261 331.689 248.94C327.85 252.804 322.59 253.293 319.324 253.636C310.797 254.533 296.209 245.295 294.689 230.822C294.053 224.766 296.516 218.446 300.225 213.079C299.344 211.503 298.772 209.768 298.545 207.976L295.797 186.674C295.785 186.577 295.773 186.481 295.763 186.385C294.555 186.594 293.329 186.701 292.102 186.701C290.017 186.701 287.942 186.396 285.945 185.796C285.959 186.065 285.966 186.341 285.966 186.613C285.966 187.006 285.95 187.404 285.919 187.796L284.36 207.297C284.237 208.924 283.83 210.525 283.169 212.017C287.291 217.601 290.141 224.36 289.462 230.819C288.009 244.641 274.632 253.693 266.005 253.696C266.005 253.697 266.005 253.697 266.005 253.697C265.61 253.697 265.215 253.675 264.824 253.635H264.823V253.635Z" fill="#FF2B2B"/>
<circle cx="269.332" cy="236.08" r="15.0929" fill="#C70000"/>
<ellipse cx="315.802" cy="236.08" rx="14.6958" ry="15.0929" fill="#C70000"/>
<path fill-rule="evenodd" clip-rule="evenodd" d="M260.594 213.043H271.715C275.224 213.043 278.07 215.889 278.07 219.398L278.069 222.576C278.07 226.085 275.224 228.93 271.715 228.93H260.594C257.085 228.93 254.239 226.085 254.239 222.576L254.239 219.398C254.239 215.889 257.085 213.043 260.594 213.043V213.043Z" fill="#FDB298"/>
<path fill-rule="evenodd" clip-rule="evenodd" d="M312.227 213.043H323.348C326.858 213.043 329.703 215.889 329.703 219.398L329.703 222.576C329.703 226.085 326.858 228.93 323.349 228.93H312.227C308.719 228.93 305.873 226.085 305.873 222.576L305.872 219.398C305.873 215.889 308.719 213.043 312.228 213.043H312.227Z" fill="#FDB298"/>
<path fill-rule="evenodd" clip-rule="evenodd" d="M288.396 184.446H295.545C309.582 184.446 320.965 195.83 320.965 209.866V224.958C320.965 238.995 309.582 250.378 295.546 250.378H288.396C274.36 250.378 262.978 238.995 262.978 224.958L262.977 209.866C262.978 195.83 274.36 184.446 288.397 184.446H288.396Z" fill="#FFC7A2"/>
<circle cx="280.85" cy="218.207" r="10.7238" fill="white"/>
<ellipse cx="303.489" cy="218.206" rx="10.3267" ry="10.7238" fill="white"/>
<circle cx="282.836" cy="218.604" r="5.56044" fill="#34173D"/>
<ellipse cx="301.503" cy="218.604" rx="5.16333" ry="5.56044" fill="#34173D"/>
<ellipse cx="278.467" cy="227.342" rx="7.54644" ry="5.56044" fill="#FFC7A2"/>
<ellipse cx="305.475" cy="227.342" rx="6.75176" ry="5.56044" fill="#FFC7A2"/>
<path fill-rule="evenodd" clip-rule="evenodd" d="M292.127 199.542C292.02 199.363 291.915 199.183 291.812 199.003C285.971 199.368 282.63 192.686 282.63 192.686C282.63 192.686 275.948 199.368 263.518 197.117C263.376 197.091 263.213 197.117 263.062 197.117L263.061 185.049C263.061 185.049 280.37 182.87 290.744 182.663C301.118 182.456 321.641 183.878 321.641 183.878V213.042C321.49 213.042 321.336 213.042 321.184 213.042C312.759 213.048 304.84 210.747 298.884 206.57C296.17 204.728 293.863 202.329 292.127 199.542Z" fill="#FF2B2B"/>
<path fill-rule="evenodd" clip-rule="evenodd" d="M292.368 232.902C290.176 232.9 288.399 231.123 288.397 228.93L288.396 227.341C288.397 227.341 288.397 227.341 288.397 227.341C288.397 227.074 288.424 226.807 288.477 226.546H296.261C296.314 226.808 296.341 227.074 296.341 227.341V227.341L296.34 228.929C296.338 231.123 294.562 232.9 292.369 232.902L292.368 232.902Z" fill="white"/>
<path fill-rule="evenodd" clip-rule="evenodd" d="M288.545 230.296C289.16 228.958 290.498 228.1 291.97 228.1C292.011 228.1 292.054 228.102 292.095 228.103C292.136 228.102 292.179 228.1 292.22 228.1C293.692 228.1 295.03 228.958 295.644 230.296C295.113 231.801 293.691 232.808 292.095 232.808C290.499 232.808 289.077 231.801 288.546 230.297L288.545 230.296H288.545Z" fill="#FF6767"/>
<rect x="275.265" y="261.936" width="12.232" height="28.2272" transform="rotate(30.0001 275.265 261.936)" fill="#F3B089"/>
<ellipse cx="267.263" cy="289.911" rx="7.05708" ry="7.52735" transform="rotate(-31 267.263 289.911)" fill="#F3B089"/>
<rect x="304.386" y="264.354" width="7.52733" height="11.2915" transform="rotate(-47.0001 304.386 264.354)" fill="#E4A581"/>
<path fill-rule="evenodd" clip-rule="evenodd" d="M330.242 226.228L339.971 229.577C341.215 230.006 341.877 231.362 341.448 232.606L334.728 252.121C334.301 253.365 332.944 254.027 331.7 253.598L321.971 250.249C320.728 249.82 320.066 248.464 320.494 247.22L327.214 227.705C327.642 226.461 328.999 225.799 330.243 226.228H330.242Z" fill="#828282"/>
<path fill-rule="evenodd" clip-rule="evenodd" d="M329.301 226.228L339.029 229.577C340.274 230.006 340.935 231.362 340.507 232.606L333.787 252.121C333.359 253.365 332.003 254.027 330.758 253.598L321.03 250.249C319.786 249.82 319.125 248.464 319.553 247.22L326.272 227.705C326.701 226.461 328.058 225.799 329.302 226.228H329.301Z" fill="#AAAAAA"/>
<ellipse cx="328.714" cy="249.048" rx="7.05708" ry="7.52734" transform="rotate(152 328.714 249.048)" fill="#F3B089"/>
<path fill-rule="evenodd" clip-rule="evenodd" d="M282.685 266.806V266.806L274.537 262.101L278.569 255.114C279.279 253.887 280.591 253.13 282.009 253.13C282.706 253.13 283.391 253.314 283.995 253.663L285.266 254.396C286.493 255.106 287.25 256.418 287.25 257.837C287.25 258.533 287.067 259.218 286.72 259.821L282.687 266.807L282.685 266.806Z" fill="white"/>
<path fill-rule="evenodd" clip-rule="evenodd" d="M301.337 254.168C302.645 253.614 304.149 253.799 305.285 254.65L311.731 259.507L306.067 267.027L299.62 262.17C299.065 261.751 298.628 261.191 298.355 260.55C297.801 259.244 297.985 257.739 298.837 256.605L299.721 255.433C300.139 254.877 300.697 254.441 301.337 254.168H301.337V254.168Z" fill="white"/>
<rect x="278.863" y="255.938" width="26.2138" height="15.0929" fill="white"/>
<path fill-rule="evenodd" clip-rule="evenodd" d="M323.348 315.515H261.388V290.889C261.389 290.885 261.389 290.877 261.389 290.872C261.389 279.477 270.629 270.236 282.024 270.236C282.03 270.236 282.037 270.236 282.042 270.236H302.695C302.7 270.236 302.708 270.236 302.712 270.236C314.107 270.236 323.348 279.477 323.348 290.872C323.348 290.877 323.348 290.885 323.348 290.889V315.515Z" fill="#FF4B89"/>
<path fill-rule="evenodd" clip-rule="evenodd" d="M314.593 273.535L313.661 272.929C311.085 271.256 310.353 267.81 312.027 265.234L322.888 248.513C324.561 245.937 328.007 245.205 330.583 246.878L331.516 247.484C334.092 249.157 334.824 252.603 333.151 255.179L322.289 271.9C320.616 274.476 317.169 275.208 314.593 273.535V273.535Z" fill="#F3B089"/>
<ellipse cx="331.046" cy="239.091" rx="2.82262" ry="2.35236" transform="rotate(110 331.046 239.091)" fill="#C9C9C9"/>
<path fill-rule="evenodd" clip-rule="evenodd" d="M329.639 228.085V228.085C330.372 228.352 330.75 229.162 330.483 229.895L328.874 234.315C328.608 235.047 327.798 235.425 327.065 235.159V235.159C326.332 234.892 325.955 234.082 326.221 233.349L327.83 228.929C328.097 228.197 328.907 227.819 329.639 228.086V228.085Z" fill="#828282"/>
<circle cx="332.084" cy="229.512" r="0.47026" transform="rotate(7.99998 332.084 229.512)" fill="white"/>
<rect x="282.836" y="315.515" width="10.3267" height="19.0644" fill="#FFC7A2"/>
<rect x="293.163" y="315.515" width="9.53245" height="19.0644" fill="#F3B089"/>
<path fill-rule="evenodd" clip-rule="evenodd" d="M313.021 343.317H273.303V340.934C273.307 337.426 276.151 334.582 279.659 334.579L306.666 334.579C310.174 334.582 313.019 337.426 313.021 340.934V343.317V343.317Z" fill="#B0319A"/>
<ellipse cx="288.794" cy="339.345" rx="2.78022" ry="3.17732" fill="white"/>
<ellipse cx="298.326" cy="339.345" rx="2.78022" ry="3.17732" fill="white"/>
<path fill-rule="evenodd" clip-rule="evenodd" d="M293.163 347.289H272.509C271.633 347.288 270.921 346.577 270.921 345.7V344.906C270.921 344.028 271.633 343.317 272.51 343.317H293.163V347.289V347.289Z" fill="white"/>
<path fill-rule="evenodd" clip-rule="evenodd" d="M292.368 343.317H313.021C313.898 343.317 314.609 344.028 314.609 344.906L314.61 345.7C314.609 346.577 313.898 347.288 313.021 347.288L292.368 347.289V343.317V343.317Z" fill="#DEE4F2"/>
<rect x="169.958" y="218.67" width="49.6339" height="22.9558" fill="#FFA77D"/>
<ellipse cx="219.592" cy="203.159" rx="9.30622" ry="11.7881" fill="#FFB267"/>
<path fill-rule="evenodd" clip-rule="evenodd" d="M201.218 161.508V161.508C208.849 166.277 211.169 176.333 206.4 183.963L189.378 211.199C184.609 218.829 174.554 221.15 166.923 216.381V216.38C159.293 211.612 156.973 201.556 161.742 193.926L178.764 166.69C183.533 159.06 193.588 156.74 201.218 161.508Z" fill="#FFD96B"/>
<ellipse cx="211.837" cy="189.51" rx="16.4412" ry="16.7515" fill="#FFD96B"/>
<path fill-rule="evenodd" clip-rule="evenodd" d="M194.775 178.963V178.963C206.08 178.963 215.249 188.131 215.249 199.437L215.249 213.086C215.249 224.392 206.08 233.56 194.775 233.56L194.775 233.56C183.47 233.56 174.301 224.392 174.301 213.086L174.301 199.437C174.301 188.131 183.47 178.963 194.775 178.963L194.775 178.963Z" fill="#FFA77D"/>
<path fill-rule="evenodd" clip-rule="evenodd" d="M200.877 186.789L205.727 188.651C206.823 189.072 207.371 190.302 206.95 191.398L206.95 191.397C206.529 192.493 205.3 193.041 204.204 192.62L199.353 190.759C198.257 190.338 197.71 189.109 198.131 188.012V188.012C198.551 186.916 199.781 186.369 200.877 186.79V186.789Z" fill="#502B15"/>
<path fill-rule="evenodd" clip-rule="evenodd" d="M184.343 188.377L189.336 186.943C190.464 186.619 191.641 187.271 191.965 188.399H191.965C192.289 189.527 191.637 190.705 190.509 191.029L185.516 192.462C184.388 192.786 183.211 192.134 182.887 191.007V191.006C182.563 189.878 183.215 188.701 184.343 188.377H184.343Z" fill="#502B15"/>
<path fill-rule="evenodd" clip-rule="evenodd" d="M194.907 214.702C192.691 214.738 190.864 212.971 190.824 210.756L190.796 209.102L198.825 208.965L198.854 210.619C198.889 212.835 197.123 214.663 194.907 214.702V214.702Z" fill="white"/>
<circle cx="204.391" cy="202.229" r="8.99598" fill="white"/>
<circle cx="204.391" cy="202.229" r="8.37598" stroke="#502B15" stroke-width="0.715936"/>
<circle cx="201.743" cy="202.347" r="3.88257" transform="rotate(173.976 201.743 202.347)" fill="#502B15"/>
<circle cx="185.779" cy="202.229" r="8.99598" fill="white"/>
<circle cx="185.779" cy="202.229" r="8.37598" stroke="#502B15" stroke-width="0.715936"/>
<circle cx="188.518" cy="202.347" r="3.88257" transform="rotate(173.976 188.518 202.347)" fill="#502B15"/>
<path d="M194.387 202.183H195.804" stroke="#502B15" stroke-width="0.715936"/>
<ellipse cx="206.252" cy="209.984" rx="6.51454" ry="4.96335" fill="#FFA77D"/>
<ellipse cx="183.296" cy="209.984" rx="6.51454" ry="4.96335" fill="#FFA77D"/>
<path fill-rule="evenodd" clip-rule="evenodd" d="M170.888 207.502H173.37C177.31 207.502 180.505 210.697 180.505 214.637H180.505C180.505 218.577 177.31 221.772 173.37 221.772H170.888C166.949 221.772 163.754 218.577 163.754 214.637H163.753C163.754 210.697 166.949 207.502 170.888 207.502V207.502Z" fill="#FFA77D"/>
<path fill-rule="evenodd" clip-rule="evenodd" d="M216.8 207.502H219.281C223.221 207.502 226.416 210.697 226.416 214.637V214.637C226.416 218.577 223.221 221.772 219.281 221.772H216.8C212.86 221.772 209.665 218.577 209.665 214.637H209.665C209.665 210.697 212.86 207.502 216.8 207.502V207.502Z" fill="#FFA77D"/>
<path fill-rule="evenodd" clip-rule="evenodd" d="M182.433 153.822L215.807 154.815C222.384 154.815 223.315 165.202 223.315 165.202L226.577 184.798C221.586 185.497 216.461 185.924 211.415 186.035L184.63 186.034C178.053 186.034 167.953 189.089 167.953 182.514L173.157 164.093C173.157 164.093 175.858 153.822 182.433 153.822V153.822Z" fill="#F69206"/>
<path fill-rule="evenodd" clip-rule="evenodd" d="M169.202 183.764C169.202 183.764 163.988 187.006 165.907 187.646C167.826 188.285 212.384 187.811 221.226 187.049C230.067 186.289 230.443 186.509 230.253 185.822C230.063 185.135 226.557 182.615 226.557 182.615C226.557 182.615 179.313 185.634 174.654 185.026C169.995 184.419 169.202 183.764 169.202 183.764V183.764Z" fill="#DF6409"/>
<path fill-rule="evenodd" clip-rule="evenodd" d="M204.469 172.146H189.589V158.755C189.578 158.053 189.524 157.339 189.439 156.642C189.261 154.978 189.093 153.406 190.09 152.299C191.137 151.133 193.341 150.591 197.028 150.591C200.716 150.591 202.923 151.132 203.967 152.296C204.965 153.407 204.796 154.978 204.619 156.64C204.534 157.337 204.481 158.05 204.469 158.753L204.469 172.146V172.146Z" fill="#E56408"/>
<path fill-rule="evenodd" clip-rule="evenodd" d="M205.456 155.48C205.456 155.48 216.582 157.59 217.291 162.318C218.001 167.046 217.291 179.587 217.291 179.587C217.291 179.587 183.464 181.479 191.506 182.425C199.549 183.371 224.624 181.242 224.624 181.242C224.624 181.242 224.123 168.886 221.77 161.196C221.037 158.791 217.711 155.481 217.711 155.481L205.785 154.984L205.456 155.48V155.48Z" fill="#E56408"/>
<path fill-rule="evenodd" clip-rule="evenodd" d="M188.087 155.056C188.087 155.056 183.856 161.207 181.457 165.603C179.058 170 175.06 182.394 175.06 182.394H170.263C170.263 182.394 175.061 158.407 177.46 156.808C179.859 155.208 188.087 155.056 188.087 155.056V155.056Z" fill="#F5E678" fill-opacity="0.290196"/>
<path fill-rule="evenodd" clip-rule="evenodd" d="M227.943 317.419H227.943C224.528 317.419 221.758 314.649 221.758 311.235L221.759 269.315C221.758 265.9 224.528 263.131 227.942 263.131L227.943 263.132C231.357 263.131 234.126 265.9 234.126 269.315L234.127 311.235C234.126 314.649 231.357 317.419 227.943 317.419H227.943Z" fill="#FFA77D"/>
<path fill-rule="evenodd" clip-rule="evenodd" d="M216.78 308.406C214.319 311.539 215.867 315.707 220.235 317.713C224.602 319.72 230.143 318.81 232.605 315.677C235.067 312.543 233.52 308.376 229.15 306.369C224.78 304.361 219.241 305.272 216.78 308.406V308.406Z" fill="#FFA77D"/>
<rect x="167.477" y="241.625" width="53.3563" height="30.4006" fill="#00856D"/>
<path fill-rule="evenodd" clip-rule="evenodd" d="M180.236 267.551H151.918C151.911 267.361 151.907 267.174 151.907 266.993V255.669C151.908 247.846 158.253 241.5 166.078 241.5C169.835 241.5 173.442 242.995 176.097 245.65C178.752 248.291 180.248 251.884 180.248 255.631C180.248 255.643 180.248 255.656 180.248 255.668L180.247 266.995C180.247 267.181 180.243 267.367 180.236 267.55L180.236 267.551V267.551Z" fill="#00856D"/>
<rect x="163.133" y="265.822" width="6.2043" height="6.2043" fill="#00856D"/>
<path fill-rule="evenodd" clip-rule="evenodd" d="M234.081 267.551H205.762C205.755 267.361 205.752 267.174 205.752 266.993V255.669C205.752 247.846 212.098 241.5 219.922 241.5C223.679 241.5 227.286 242.995 229.942 245.65C232.597 248.291 234.092 251.884 234.092 255.631C234.092 255.643 234.092 255.656 234.092 255.668L234.092 266.995C234.092 267.181 234.088 267.367 234.081 267.55L234.081 267.551V267.551Z" fill="#00856D"/>
<rect x="218.971" y="265.822" width="5.58382" height="6.2043" fill="#00856D"/>
<path fill-rule="evenodd" clip-rule="evenodd" d="M194.154 250.311L182.367 241.005H205.942L194.154 250.311Z" fill="#FFA77D"/>
<path fill-rule="evenodd" clip-rule="evenodd" d="M182.994 241.621L169.118 249.65V241.621H182.994Z" fill="#00B88A"/>
<path fill-rule="evenodd" clip-rule="evenodd" d="M205.486 241.621L219.363 249.65V241.621H205.486Z" fill="#00B88A"/>
<rect x="163.753" y="272.026" width="30.4006" height="35.9844" fill="#FFD2A5"/>
<rect x="194.155" y="272.026" width="30.4006" height="35.9844" fill="#FFBF7F"/>
<path fill-rule="evenodd" clip-rule="evenodd" d="M193.678 298.773C193.662 298.773 193.647 298.773 193.632 298.773C189.823 298.773 186.045 298.068 182.489 296.703C179.051 295.383 175.862 293.449 173.098 291.014C167.473 286.075 163.811 279.265 162.792 271.85L224.564 271.85C223.546 279.265 219.885 286.075 214.261 291.015C211.495 293.449 208.306 295.383 204.866 296.702C201.313 298.068 197.535 298.773 193.726 298.773C193.71 298.773 193.696 298.773 193.68 298.773H193.678V298.773Z" fill="#FFD2A5"/>
<rect x="152.11" y="267.508" width="10.8636" height="14.1698" fill="#F69B70"/>
<path fill-rule="evenodd" clip-rule="evenodd" d="M184.562 238.468C184.817 237.998 185.344 237.744 185.87 237.837C186.396 237.93 186.804 238.349 186.882 238.878L187.397 242.358C187.416 242.49 187.415 242.624 187.391 242.756C187.272 243.43 186.628 243.881 185.953 243.762C185.953 243.762 185.952 243.762 185.952 243.762L183.762 243.375C183.762 243.375 183.761 243.375 183.761 243.375C183.086 243.255 182.635 242.611 182.754 241.936C182.777 241.805 182.821 241.678 182.885 241.561L184.562 238.468Z" fill="white"/>
<path fill-rule="evenodd" clip-rule="evenodd" d="M185.072 238.717C185.174 238.434 185.466 238.265 185.763 238.318C186.06 238.37 186.276 238.628 186.276 238.93L186.275 242.83C186.275 242.865 186.272 242.901 186.266 242.937C186.206 243.274 185.884 243.5 185.547 243.441H185.546L184.211 243.204C184.211 243.204 184.211 243.204 184.211 243.204C183.874 243.145 183.648 242.822 183.708 242.485C183.714 242.45 183.724 242.414 183.736 242.38L185.072 238.717V238.717Z" fill="#E9E2E4"/>
<rect x="159.411" y="241.005" width="27.9191" height="44.6701" fill="#EF2F3C"/>
<path fill-rule="evenodd" clip-rule="evenodd" d="M151.874 280.16V280.159C151.874 276.744 154.643 273.975 158.058 273.975L190.692 273.976C194.106 273.975 196.875 276.744 196.875 280.159L196.876 280.16C196.875 283.574 194.106 286.343 190.692 286.343L158.058 286.344C154.643 286.343 151.874 283.574 151.874 280.159L151.874 280.16Z" fill="#FFA77D"/>
<path fill-rule="evenodd" clip-rule="evenodd" d="M186.972 268.997C190.412 266.537 194.993 268.082 197.2 272.453C199.407 276.824 198.403 282.36 194.961 284.822C191.519 287.283 186.94 285.737 184.734 281.367C182.527 276.997 183.53 271.458 186.972 268.997V268.997Z" fill="#FFA77D"/>
<path fill-rule="evenodd" clip-rule="evenodd" d="M155.881 223.711C160.469 223.499 186.127 236.934 186.127 236.934L179.873 260.114L143.39 248.061C143.39 248.061 151.293 223.924 155.881 223.711Z" fill="white"/>
<rect x="182.987" y="308.011" width="11.1676" height="19.8534" fill="#FFA77D"/>
<rect x="194.154" y="308.011" width="11.1676" height="19.8534" fill="#FFA77D"/>
<path fill-rule="evenodd" clip-rule="evenodd" d="M191.666 342.754H169.343C169.337 342.639 169.337 342.529 169.337 342.424C169.353 339.661 170.544 337.034 172.609 335.2C174.745 333.275 177.523 332.207 180.4 332.207C180.434 332.207 180.471 332.207 180.505 332.207C180.538 332.207 180.576 332.207 180.61 332.207C183.487 332.207 186.265 333.275 188.402 335.2C190.466 337.034 191.657 339.661 191.673 342.424C191.673 342.533 191.673 342.644 191.667 342.753L191.666 342.754V342.754Z" fill="#FF2E46"/>
<rect x="182.986" y="327.864" width="11.1676" height="14.89" fill="#FF2E46"/>
<path fill-rule="evenodd" clip-rule="evenodd" d="M180.25 342.754H175.545C175.545 342.667 175.542 342.59 175.542 342.516C175.542 342.509 175.542 342.499 175.542 342.492C175.542 340.428 176.359 338.447 177.813 336.984C179.26 335.518 181.236 334.691 183.297 334.691C185.358 334.691 187.334 335.518 188.781 336.984C190.234 338.446 191.052 340.428 191.052 342.491C191.052 342.499 191.052 342.508 191.052 342.516C191.052 342.594 191.052 342.674 191.048 342.753L186.343 342.754C186.348 342.676 186.352 342.597 186.352 342.516C186.352 342.502 186.352 342.486 186.352 342.472C186.352 340.785 184.984 339.416 183.297 339.416C181.609 339.416 180.241 340.785 180.241 342.472C180.241 342.486 180.241 342.502 180.241 342.515C180.241 342.595 180.241 342.674 180.25 342.753V342.754V342.754Z" fill="white"/>
<path fill-rule="evenodd" clip-rule="evenodd" d="M194.154 346.477H169.027C167.829 346.477 166.856 345.504 166.856 344.305C166.856 343.106 167.829 342.134 169.028 342.134H194.154V346.477V346.477Z" fill="white"/>
<path fill-rule="evenodd" clip-rule="evenodd" d="M196.642 342.754H218.966C218.972 342.639 218.972 342.529 218.972 342.424C218.956 339.661 217.765 337.034 215.7 335.2C213.563 333.275 210.785 332.207 207.908 332.207C207.874 332.207 207.837 332.207 207.803 332.207C207.769 332.207 207.733 332.207 207.699 332.207C204.822 332.207 202.043 333.275 199.907 335.201C197.842 337.034 196.651 339.661 196.635 342.424C196.635 342.533 196.635 342.644 196.641 342.753L196.642 342.754Z" fill="#F0203B"/>
<rect x="194.154" y="327.864" width="11.1676" height="14.89" fill="#F0203B"/>
<path fill-rule="evenodd" clip-rule="evenodd" d="M208.058 342.754H212.764C212.767 342.667 212.767 342.589 212.767 342.516C212.767 342.509 212.767 342.5 212.767 342.492C212.767 340.428 211.95 338.447 210.496 336.984C209.049 335.518 207.073 334.691 205.012 334.691C202.95 334.691 200.974 335.518 199.528 336.984C198.075 338.446 197.256 340.428 197.256 342.491C197.256 342.499 197.256 342.508 197.256 342.516C197.256 342.594 197.256 342.674 197.26 342.753L201.966 342.754C201.96 342.676 201.957 342.597 201.957 342.516C201.957 342.502 201.957 342.486 201.957 342.472C201.957 340.785 203.325 339.417 205.012 339.417C206.7 339.417 208.068 340.785 208.068 342.472C208.068 342.486 208.067 342.502 208.067 342.516C208.067 342.595 208.067 342.674 208.058 342.754V342.754V342.754Z" fill="#DEE4F2"/>
<path fill-rule="evenodd" clip-rule="evenodd" d="M194.154 342.134H219.282C220.48 342.134 221.452 343.106 221.452 344.305C221.452 345.504 220.48 346.477 219.281 346.477H194.154V342.134L194.154 342.134Z" fill="#DEE4F2"/>
<rect y="213.122" width="5.32613" height="5.32613" transform="rotate(-50 0 213.122)" fill="#3F394B"/>
<rect x="10.8452" y="219.012" width="31.6472" height="4.16426" transform="rotate(-48.0001 10.8452 219.012)" fill="#8D9293"/>
<rect x="21.3037" y="188.859" width="5.32613" height="5.32613" transform="rotate(-50 21.3037 188.859)" fill="#3F394B"/>
<rect x="101.255" y="297.516" width="9.20264" height="46.7206" fill="#B77E4E"/>
<rect x="110.458" y="297.516" width="9.91047" height="46.7206" fill="#A05C42"/>
<rect x="99.1313" y="283.358" width="12.7418" height="14.1579" fill="#FDC567"/>
<rect x="110.458" y="283.358" width="13.4501" height="14.1579" fill="#E6AC55"/>
<rect x="104.086" y="239.469" width="14.8657" height="9.20264" fill="#B77E4E"/>
<path fill-rule="evenodd" clip-rule="evenodd" d="M112.582 241.593L118.952 238.761V244.424L112.582 241.593Z" fill="#A05C42"/>
<path fill-rule="evenodd" clip-rule="evenodd" d="M116.216 206.198H79.2163C78.8116 204.628 78.603 203.011 78.603 201.388C78.603 201.386 78.603 201.379 78.603 201.377V169.388C78.6078 158.836 87.169 150.282 97.7209 150.282C105.4 150.282 112.334 154.878 115.327 161.948C116.317 164.287 116.829 166.81 116.829 169.351C116.829 169.363 116.829 169.377 116.829 169.389V201.377C116.829 201.379 116.829 201.386 116.829 201.388C116.829 203.01 116.621 204.628 116.215 206.197L116.216 206.198Z" fill="#502B15"/>
<path fill-rule="evenodd" clip-rule="evenodd" d="M143.021 206.198H106.21V141.781C106.215 131.62 114.459 123.383 124.621 123.383C132.015 123.383 138.693 127.808 141.574 134.616C142.528 136.87 143.021 139.297 143.021 141.745C143.021 141.756 143.021 141.769 143.021 141.781V206.198V206.198Z" fill="#502B15"/>
<path fill-rule="evenodd" clip-rule="evenodd" d="M81.0805 204.783H86.7436C92.4119 204.783 97.0082 209.379 97.0082 215.047V215.047C97.0082 220.715 92.4119 225.311 86.7436 225.311H81.0805C75.4132 225.311 70.8169 220.715 70.8169 215.047L70.8164 215.047C70.8169 209.379 75.4132 204.783 81.081 204.783H81.0805Z" fill="#744F39"/>
<path fill-rule="evenodd" clip-rule="evenodd" d="M135.588 204.783H141.251C146.919 204.783 151.515 209.379 151.515 215.047V215.047C151.515 220.715 146.919 225.311 141.251 225.311H135.588C129.92 225.311 125.323 220.715 125.323 215.047V215.047C125.323 209.379 129.92 204.783 135.588 204.783Z" fill="#744F39"/>
<path fill-rule="evenodd" clip-rule="evenodd" d="M111.166 167.265V167.265C126.411 167.264 138.773 179.627 138.773 194.872V213.277C138.773 228.522 126.411 240.884 111.166 240.884H111.166C95.9209 240.884 83.5581 228.522 83.5581 213.277V194.872C83.5581 179.627 95.9209 167.264 111.166 167.264L111.166 167.265Z" fill="#B77E4E"/>
<path fill-rule="evenodd" clip-rule="evenodd" d="M90.6724 184.495L104.616 177.992C106.986 176.888 109.804 177.913 110.908 180.282V180.282C112.013 182.652 110.988 185.469 108.619 186.574L94.674 193.076C92.3047 194.181 89.4873 193.155 88.3828 190.787H88.3824C87.2779 188.417 88.3031 185.6 90.6724 184.495V184.495Z" fill="#502B15"/>
<path fill-rule="evenodd" clip-rule="evenodd" d="M115.623 189.677H131.009C133.623 189.677 135.744 191.797 135.744 194.411V194.411C135.744 197.026 133.623 199.145 131.009 199.145H115.623C113.009 199.145 110.889 197.026 110.889 194.411V194.411C110.889 191.797 113.009 189.677 115.623 189.677Z" fill="#502B15"/>
<path fill-rule="evenodd" clip-rule="evenodd" d="M98.4236 213.277C95.769 213.274 93.2298 212.17 91.4151 210.233C89.5518 208.27 88.5132 205.665 88.5132 202.958C88.5132 202.937 88.5132 202.916 88.5132 202.895C88.5137 202.58 88.5265 202.263 88.5533 201.951H108.294C108.321 202.265 108.334 202.582 108.334 202.895C108.335 202.916 108.335 202.937 108.335 202.958C108.335 205.665 107.295 208.27 105.431 210.233C103.618 212.17 101.079 213.274 98.4236 213.277V213.277Z" fill="white"/>
<path fill-rule="evenodd" clip-rule="evenodd" d="M123.908 213.277C121.252 213.274 118.714 212.17 116.899 210.233C115.036 208.27 113.997 205.665 113.997 202.958C113.997 202.937 113.997 202.916 113.997 202.895C113.997 202.58 114.01 202.263 114.037 201.951H133.777C133.805 202.265 133.818 202.582 133.818 202.895C133.818 202.916 133.818 202.937 133.818 202.958C133.818 205.665 132.778 208.27 130.915 210.233C129.101 212.17 126.563 213.274 123.908 213.277V213.277Z" fill="white"/>
<circle cx="98.7776" cy="215.047" r="7.43285" fill="#B77E4E"/>
<circle cx="123.554" cy="215.047" r="7.43285" fill="#B77E4E"/>
<path fill-rule="evenodd" clip-rule="evenodd" d="M110.812 218.233C108.273 218.23 106.213 216.171 106.211 213.632L106.21 210.445H115.413V213.631C115.411 216.171 113.352 218.23 110.812 218.233H110.812V218.233Z" fill="white"/>
<path fill-rule="evenodd" clip-rule="evenodd" d="M100.548 207.614C99.2197 207.613 97.9511 207.062 97.0437 206.094C96.1121 205.112 95.5923 203.809 95.5923 202.456C95.5923 202.445 95.5923 202.433 95.5923 202.422C95.5923 202.265 95.599 202.107 95.6128 201.951H105.482C105.495 202.108 105.503 202.266 105.503 202.422C105.503 202.433 105.503 202.445 105.503 202.456C105.503 203.809 104.983 205.112 104.051 206.093C103.144 207.062 101.875 207.613 100.548 207.614V207.614V207.614Z" fill="#502B15"/>
<path fill-rule="evenodd" clip-rule="evenodd" d="M121.784 207.614C120.457 207.613 119.188 207.062 118.281 206.094C117.349 205.112 116.829 203.809 116.829 202.456C116.829 202.445 116.829 202.433 116.829 202.422C116.829 202.265 116.836 202.107 116.85 201.951H126.719C126.732 202.108 126.74 202.266 126.74 202.422C126.74 202.433 126.74 202.445 126.74 202.456C126.74 203.809 126.219 205.112 125.288 206.093C124.38 207.062 123.112 207.613 121.784 207.614V207.614V207.614Z" fill="#502B15"/>
<rect x="104.086" y="243.008" width="4.95523" height="4.95523" fill="#FF728E"/>
<rect x="113.997" y="243.008" width="4.95523" height="4.95523" fill="#FF728E"/>
<ellipse cx="111.166" cy="276.633" rx="15.5735" ry="13.0959" fill="#FDC567"/>
<path fill-rule="evenodd" clip-rule="evenodd" d="M102.4 279.014H92.3398L92.4816 266.002C92.4644 265.614 92.4525 265.214 92.4525 264.823C92.4525 264.257 92.4735 263.683 92.5117 263.121V262.891H92.5265C92.6525 261.36 92.9164 259.836 93.3135 258.35C93.7946 256.546 94.4638 254.788 95.2995 253.119L95.299 254.159H115.417V252.34C115.784 253.932 115.972 255.571 115.972 257.206C115.972 257.452 115.966 257.705 115.959 257.948C115.897 260.049 115.58 262.142 115.033 264.17C112.801 272.499 107.605 278.587 102.397 278.973V279.012L102.4 279.014V279.014Z" fill="#FF2E46"/>
<path fill-rule="evenodd" clip-rule="evenodd" d="M107.688 252.345V252.345V254.159H127.807V253.121C128.641 254.79 129.311 256.544 129.79 258.349C130.145 259.688 130.4 261.065 130.537 262.443L130.765 262.444V279.014H120.705V278.973C115.497 278.589 110.302 272.501 108.069 264.17C107.523 262.141 107.207 260.048 107.144 257.948C107.137 257.708 107.131 257.461 107.131 257.218C107.131 255.579 107.319 253.941 107.688 252.345V252.345V252.345Z" fill="#FF2E46"/>
<path fill-rule="evenodd" clip-rule="evenodd" d="M97.0069 247.964H125.323C129.232 247.964 132.401 251.133 132.401 255.042V255.042C132.401 258.951 129.232 262.121 125.323 262.121H97.0069C93.0984 262.121 89.9287 258.951 89.9287 255.042H89.9282C89.9287 251.133 93.0984 247.964 97.0074 247.964H97.0069Z" fill="#FF2E46"/>
<path fill-rule="evenodd" clip-rule="evenodd" d="M89.469 265.582L79.8945 258.623L85.8101 250.485C85.822 250.468 85.8354 250.449 85.8478 250.432C87.7694 247.788 91.4712 247.202 94.1149 249.124C96.7586 251.045 97.3443 254.748 95.4227 257.391C95.4108 257.408 95.3969 257.427 95.3845 257.444L89.4695 265.582L89.469 265.582V265.582Z" fill="#FF2E46"/>
<path fill-rule="evenodd" clip-rule="evenodd" d="M140.339 258.457L130.888 265.58L124.833 257.545C124.82 257.529 124.806 257.51 124.794 257.494C122.827 254.883 123.349 251.172 125.959 249.205C128.568 247.239 132.28 247.761 134.246 250.371C134.259 250.387 134.273 250.406 134.285 250.423L140.339 258.457L140.339 258.457V258.457Z" fill="#FF2E46"/>
<path fill-rule="evenodd" clip-rule="evenodd" d="M108.687 243.008L113.997 247.964H103.378L108.687 243.008Z" fill="#FF2E46"/>
<path fill-rule="evenodd" clip-rule="evenodd" d="M114.35 243.008L119.659 247.964H109.041L114.35 243.008Z" fill="#FF2E46"/>
<ellipse cx="111.874" cy="252.565" rx="1.41564" ry="1.06197" fill="white"/>
<ellipse cx="111.874" cy="258.936" rx="1.41564" ry="1.06197" fill="white"/>
<ellipse cx="111.874" cy="266.015" rx="1.41564" ry="1.06197" fill="white"/>
<circle cx="134.43" cy="260.723" r="6.51316" transform="rotate(6.02398 134.43 260.723)" fill="#FF728E"/>
<path fill-rule="evenodd" clip-rule="evenodd" d="M111.575 280.195V280.195C110.006 278.325 110.249 275.536 112.119 273.967L132.18 257.127C134.05 255.557 136.839 255.801 138.408 257.671L138.409 257.671C139.977 259.54 139.735 262.329 137.865 263.899L117.804 280.739C115.934 282.308 113.145 282.065 111.575 280.195L111.575 280.195Z" fill="#B77E4E"/>
<circle cx="83.2619" cy="263.611" r="6.50973" transform="rotate(74 83.2619 263.611)" fill="#FF728E"/>
<path fill-rule="evenodd" clip-rule="evenodd" d="M59.6584 243.388V243.388C61.2597 241.545 64.0523 241.35 65.8946 242.951L86.5527 260.91C88.3951 262.511 88.5903 265.303 86.989 267.146L86.9895 267.146C85.3877 268.988 82.595 269.183 80.7527 267.581L60.0941 249.624C58.2523 248.022 58.057 245.229 59.6584 243.387V243.388Z" fill="#B77E4E"/>
<rect x="4.04004" y="215.848" width="4.16426" height="153.237" transform="rotate(-48.0001 4.04004 215.848)" fill="#8D9293"/>
<rect x="25.6924" y="191.696" width="4.16426" height="153.237" transform="rotate(-48.0001 25.6924 191.696)" fill="#8D9293"/>
<rect x="24.1704" y="231.504" width="31.6472" height="4.16426" transform="rotate(-48.0001 24.1704 231.504)" fill="#8D9293"/>
<rect x="39.1606" y="244.829" width="31.6472" height="4.16426" transform="rotate(-48.0001 39.1606 244.829)" fill="#8D9293"/>
<rect x="53.3188" y="257.32" width="31.6472" height="4.16426" transform="rotate(-48.0001 53.3188 257.32)" fill="#8D9293"/>
<rect x="68.3086" y="270.646" width="31.6472" height="4.16426" transform="rotate(-48.0001 68.3086 270.646)" fill="#8D9293"/>
<rect x="82.4663" y="283.138" width="31.6472" height="4.16426" transform="rotate(-48.0001 82.4663 283.138)" fill="#8D9293"/>
<rect x="96.624" y="296.462" width="31.6472" height="4.16426" transform="rotate(-48.0001 96.624 296.462)" fill="#8D9293"/>
<circle cx="115.213" cy="278.249" r="5.45827" transform="rotate(-147 115.213 278.249)" fill="#B77E4E"/>
<circle cx="63.3222" cy="243.245" r="5.45828" transform="rotate(5.99999 63.3222 243.245)" fill="#B77E4E"/>
<rect x="137.884" y="293.604" width="5.32613" height="5.32613" transform="rotate(-50 137.884 293.604)" fill="#3F394B"/>
<path fill-rule="evenodd" clip-rule="evenodd" d="M95.2382 337.865H105.149C106.907 337.865 108.334 339.292 108.334 341.051V341.051C108.334 342.81 106.907 344.236 105.149 344.236H95.2382C93.4794 344.236 92.0527 342.81 92.0527 341.051V341.051C92.0527 339.292 93.4794 337.865 95.2382 337.865V337.865Z" fill="#B77E4E"/>
<path fill-rule="evenodd" clip-rule="evenodd" d="M117.183 337.865H126.385C128.144 337.865 129.571 339.292 129.571 341.051V341.051C129.571 342.81 128.144 344.236 126.385 344.236H117.183C115.424 344.236 113.997 342.81 113.997 341.051V341.051C113.997 339.292 115.424 337.865 117.183 337.865Z" fill="#A05C42"/>
<path fill-rule="evenodd" clip-rule="evenodd" d="M119.651 334.642C119.653 334.641 119.656 334.641 119.659 334.641C121.938 334.641 124.067 335.785 125.325 337.685C125.015 337.628 124.701 337.598 124.386 337.598H124.385H120.835C120.832 337.598 120.827 337.598 120.824 337.598C118.049 337.598 115.798 339.849 115.798 342.624C115.798 344.111 116.456 345.521 117.596 346.476L114.039 346.476C113.262 345.349 112.845 344.011 112.845 342.641C112.845 342.638 112.845 342.634 112.845 342.63L112.846 341.446C112.85 337.69 115.895 334.644 119.651 334.641V334.642V334.642Z" fill="#34173D"/>
<path fill-rule="evenodd" clip-rule="evenodd" d="M106.533 346.476H102.976C104.113 345.521 104.771 344.111 104.771 342.626C104.771 339.85 102.521 337.6 99.7451 337.6C99.7436 337.6 99.7398 337.6 99.7379 337.6H96.1864C96.1811 337.6 96.174 337.6 96.1682 337.6C95.8599 337.6 95.5501 337.629 95.2471 337.684C96.5076 335.783 98.6382 334.639 100.92 334.639C104.678 334.639 107.726 337.686 107.727 341.444V342.627C107.727 342.63 107.727 342.634 107.727 342.637C107.727 344.007 107.31 345.346 106.533 346.473V346.476Z" fill="#34173D"/>
<path fill-rule="evenodd" clip-rule="evenodd" d="M92.0527 342.113H129.571C130.743 342.112 131.695 343.063 131.695 344.236H131.694C131.695 345.409 130.743 346.36 129.571 346.36H92.0527C90.8804 346.36 89.9292 345.409 89.9292 344.236H89.9287C89.9292 343.063 90.8804 342.112 92.0531 342.112L92.0527 342.113Z" fill="#34173D"/>
<rect x="116.58" y="317.868" width="5.32613" height="5.32613" transform="rotate(-50 116.58 317.868)" fill="#3F394B"/>
<path d="M149.742 0.529902C150.21 0.0877747 150.933 -0.219792 151.499 0.19762C152.518 0.90063 153.42 1.78214 154.378 2.57852C168.883 14.9114 183.362 27.2772 197.872 39.6046C198.473 40.1264 199.239 40.6152 199.35 41.5297C199.325 42.3727 198.721 43.2131 197.897 43.1966C194.762 43.2405 191.625 43.1911 188.488 43.2103C187.664 43.1444 186.911 43.9161 186.959 44.8195C186.871 53.533 186.952 62.2493 186.957 70.9655C186.946 71.5257 186.916 72.1601 186.519 72.5802C186.062 73.0937 185.349 73.0169 184.747 73.058C176.143 73.0031 167.535 73.058 158.931 73.0278C158.028 73.1157 157.273 72.2067 157.381 71.2429C157.374 63.8146 157.384 56.3863 157.376 48.958C157.394 48.2934 157.326 47.4558 157.92 47.0439C159.548 45.7834 160.099 43.257 162.121 42.5293C164.179 41.5819 166.188 42.9659 168.061 43.7623C169.634 44.5861 171.423 44.3115 173.112 44.339C173.739 44.3005 174.404 44.4076 175 44.1467C175.503 43.8914 175.607 43.2268 175.604 42.6858C175.554 38.0998 175.566 33.511 175.521 28.9249C175.594 28.189 175.089 27.4503 174.378 27.475C172.849 27.4475 171.317 27.4091 169.79 27.5107C167.31 27.8512 165.212 30.2458 162.599 29.5867C161.117 29.3506 160.23 27.7798 158.766 27.5134C158.16 27.3734 157.533 27.3679 156.916 27.3679C153.716 27.431 150.518 27.4283 147.318 27.4475C144.527 27.4365 141.653 27.3239 138.979 28.3455C134.244 30.0591 130.402 33.7609 127.093 37.7016C125.579 39.6431 124.095 41.6285 122.808 43.7568C122.116 44.7674 123.261 46.2366 124.302 45.8054C125.344 45.3029 126.201 44.4461 127.199 43.8529C129.773 42.2162 132.429 40.596 135.356 39.8573C137.75 39.2284 140.415 40.4862 141.628 42.8094C142.237 43.993 142.419 45.366 142.965 46.5798C143.223 47.1318 143.855 47.1702 144.335 47.357C144.345 55.3153 144.328 63.2763 144.34 71.2346C144.403 72.193 143.703 73.1047 142.788 73.0278C133.946 73.0361 125.104 73.0498 116.261 73.0223C115.349 73.1047 114.694 72.182 114.767 71.2456C114.73 62.6337 114.775 54.0191 114.767 45.4072C114.823 44.6108 114.641 43.6332 113.862 43.3311C113.069 43.1142 112.24 43.2378 111.431 43.2103C108.822 43.1829 106.208 43.2652 103.6 43.1691C102.386 43.0373 101.944 41.0876 102.968 40.3488C118.552 27.0658 134.151 13.802 149.742 0.529902Z" fill="#B61635"/>
<path d="M212.124 13.4581C215.464 13.4736 218.805 13.4684 222.146 13.489C222.151 18.0416 222.151 22.5941 222.162 27.1517C224.215 27.1879 226.275 27.1105 228.328 27.1569C228.519 29.5261 228.437 31.9056 228.359 34.2851C226.295 34.2902 224.231 34.2954 222.172 34.3109C222.043 42.1874 222.131 50.0692 222.125 57.9509C222.244 59.6542 221.889 61.8892 223.536 62.9783C225.013 63.6648 226.727 63.4893 228.313 63.6854C228.39 67.2056 230.135 71.0355 233.682 72.202C230.254 72.2795 226.83 72.1969 223.407 72.1608C220.452 72.1298 217.384 71.2884 215.197 69.2135C213.091 67.2727 212.077 64.3771 212.093 61.5434C211.861 52.4641 212.273 43.3746 212.046 34.2954C210.379 34.2902 208.711 34.2902 207.043 34.2902C207.043 31.9159 207.038 29.5416 207.043 27.1672C208.711 27.1569 210.384 27.1517 212.057 27.1466C212.082 22.5837 212.098 18.0209 212.124 13.4581Z" fill="#B61635"/>
<path d="M268.318 13.4581C271.654 13.4581 274.991 13.4581 278.332 13.4581C278.332 28.6213 278.337 43.7845 278.327 58.9478C278.368 60.2822 278.337 61.8073 279.284 62.879C280.367 63.9146 282.001 63.7497 283.391 63.8631C283.396 66.738 283.396 69.613 283.391 72.488C279.539 72.5911 275.35 72.3953 272.211 69.8913C269.078 67.65 268.136 63.5797 268.308 59.9473C268.324 44.4492 268.308 28.9562 268.318 13.4581Z" fill="#B61635"/>
<path d="M232.858 27.1909C236.172 27.1909 239.48 27.1909 242.794 27.1909C242.804 37.7272 242.779 48.2583 242.804 58.7895C242.717 60.6228 243.491 62.5745 245.127 63.5221C247.347 64.4851 250.376 64.2173 251.904 62.1728C252.725 60.767 252.839 59.083 252.859 57.4917C252.859 47.3932 252.859 37.2894 252.859 27.1909C256.173 27.1909 259.481 27.1909 262.795 27.196C262.795 42.3413 262.795 57.4866 262.795 72.637C259.481 72.637 256.173 72.637 252.859 72.637C252.864 71.1179 252.854 69.5987 252.849 68.0795C250.944 70.5617 248.286 72.7555 245.045 72.9975C240.549 73.461 235.382 71.2518 233.643 66.8642C232.961 65.3863 232.853 63.7435 232.858 62.1368C232.863 50.4881 232.858 38.8395 232.858 27.1909Z" fill="#B61635"/>
<path fill-rule="evenodd" clip-rule="evenodd" d="M307.254 27.4446C303.144 26.1464 298.488 26.3834 294.667 28.4388C290.5 30.721 287.235 35.0175 287.065 39.8806C286.943 42.9078 286.96 45.937 286.977 48.9669C286.988 50.9178 286.998 52.869 286.972 54.8203C286.976 55.081 286.98 55.3428 286.983 55.6053C287.027 58.8596 287.072 62.2305 288.559 65.1956C290.068 68.8687 293.709 71.1612 297.329 72.3873C301.501 73.5155 306.25 73.2991 310.061 71.1354C313.841 68.4257 317.127 64.2117 316.89 59.3228L316.883 59.3228C313.579 59.3176 310.28 59.3125 306.981 59.3228C306.523 60.8322 305.853 62.4859 304.308 63.171C301.584 64.7526 297.494 63.1401 296.964 59.9513C296.85 58.4914 296.87 57.0274 296.889 55.5645C296.901 54.7096 296.912 53.855 296.897 53.0017C300.696 53.0076 304.496 53.0068 308.295 53.0059C311.145 53.0053 313.994 53.0047 316.844 53.0069C316.848 51.4075 316.848 49.8071 316.847 48.2066C316.846 46.286 316.846 44.3653 316.854 42.4461L316.854 42.3934C316.844 40.4063 316.833 38.3852 316.231 36.4754C314.959 32.2356 311.436 28.8201 307.254 27.4446ZM296.893 43.6832C296.862 41.8475 296.832 39.9989 297.407 38.2476C298.972 34.9351 304.761 34.6672 306.28 38.1703C307.013 39.8989 306.973 41.7796 306.934 43.6422C306.92 44.322 306.906 44.9993 306.929 45.6659H296.897C296.915 45.0102 296.904 44.3475 296.893 43.6832Z" fill="#B61635"/>
<path d="M322.398 27.1304C325.707 27.1253 329.021 27.1253 332.33 27.1304C332.33 28.6412 332.335 30.1519 332.335 31.6626C336.077 25.5524 346.035 24.7971 350.351 30.6227C352.261 32.7077 352.261 35.6774 352.333 38.3419C352.333 49.8224 352.333 61.3029 352.333 72.7834C349.024 72.7834 345.71 72.7834 342.401 72.7834C342.313 61.7737 342.561 50.7537 342.277 39.7543C342.215 35.7912 336.945 34.6685 334.24 36.7432C332.923 37.9176 332.314 39.6922 332.34 41.4306C332.319 51.8815 332.34 62.3325 332.33 72.7834C329.021 72.7834 325.707 72.7834 322.398 72.7834C322.393 57.5623 322.398 42.3464 322.398 27.1304Z" fill="#B61635"/>
<defs>
<linearGradient id="paint0_linear_74_2863" x1="354.269" y1="243.274" x2="407.602" y2="243.274" gradientUnits="userSpaceOnUse">
<stop stop-color="#FFD1A4"/>
<stop offset="1" stop-color="#FFCCB7"/>
</linearGradient>
<linearGradient id="paint1_linear_74_2863" x1="362.481" y1="222.495" x2="374.356" y2="222.495" gradientUnits="userSpaceOnUse">
<stop stop-color="#FFD1A4"/>
<stop offset="1" stop-color="#F8C7A2"/>
</linearGradient>
<linearGradient id="paint2_linear_74_2863" x1="381.505" y1="221.686" x2="390.934" y2="228.549" gradientUnits="userSpaceOnUse">
<stop stop-color="#FFD1A4"/>
<stop offset="1" stop-color="#ECB79F"/>
</linearGradient>
</defs>
</svg>
