<svg width="253" height="72" viewBox="0 0 253 72" fill="none" xmlns="http://www.w3.org/2000/svg">
<path d="M46.8009 0.522228C47.2632 0.0865035 47.9778 -0.216609 48.5375 0.194758C49.5445 0.887587 50.4366 1.75633 51.3836 2.54118C65.7216 14.6955 80.0346 26.8822 94.3775 39.0311C94.9722 39.5453 95.7293 40.027 95.8393 40.9282C95.8143 41.7591 95.2171 42.5872 94.4025 42.571C91.304 42.6143 88.203 42.5656 85.1021 42.5845C84.2875 42.5196 83.5428 43.2801 83.5903 44.1705C83.5028 52.7578 83.5828 61.3478 83.5878 69.9378C83.5778 70.4899 83.5478 71.115 83.1555 71.5291C82.7032 72.0352 81.9986 71.9594 81.4039 72C72.8981 71.9459 64.3897 72 55.8839 71.9702C54.9919 72.0568 54.2447 71.161 54.3522 70.2111C54.3447 62.8904 54.3547 55.5697 54.3472 48.249C54.3647 47.594 54.2972 46.7686 54.8844 46.3626C56.4936 45.1204 57.0384 42.6305 59.0374 41.9134C61.0714 40.9797 63.0579 42.3437 64.9095 43.1285C66.4637 43.9404 68.2329 43.6698 69.902 43.6968C70.5217 43.659 71.1789 43.7645 71.7686 43.5074C72.2659 43.2557 72.3683 42.6008 72.3658 42.0676C72.3158 37.548 72.3283 33.0257 72.2834 28.506C72.3558 27.7807 71.8561 27.0527 71.1539 27.0771C69.6422 27.05 68.1279 27.0121 66.6187 27.1123C64.1674 27.4478 62.0934 29.8078 59.5096 29.1583C58.0454 28.9255 57.1683 27.3775 55.7215 27.115C55.1218 26.9769 54.5021 26.9715 53.8924 26.9715C50.729 27.0338 47.568 27.0311 44.4046 27.05C41.6459 27.0392 38.8048 26.9282 36.1611 27.935C31.4809 29.6238 27.6828 33.2719 24.4119 37.1556C22.9151 39.069 21.4484 41.0257 20.1765 43.1231C19.4918 44.119 20.6238 45.5669 21.6533 45.142C22.6827 44.6468 23.5298 43.8024 24.5168 43.2178C27.0606 41.6048 29.6868 40.0081 32.5804 39.2801C34.9467 38.6603 37.5804 39.8998 38.7798 42.1894C39.382 43.3558 39.5619 44.709 40.1017 45.9052C40.3566 46.4492 40.9813 46.4871 41.456 46.6711C41.466 54.5142 41.4485 62.3599 41.461 70.203C41.5235 71.1475 40.8313 72.046 39.9268 71.9702C31.1861 71.9784 22.4454 71.9919 13.7047 71.9648C12.8026 72.046 12.1554 71.1367 12.2279 70.2138C12.1904 61.7266 12.2354 53.2368 12.2279 44.7496C12.2829 43.9648 12.1029 43.0013 11.3333 42.7036C10.5487 42.4898 9.72911 42.6116 8.92951 42.5845C6.35077 42.5575 3.76704 42.6387 1.18831 42.5439C-0.0110997 42.414 -0.448385 40.4925 0.563618 39.7645C15.9685 26.6738 31.3885 13.6021 46.8009 0.522228Z" fill="#B61635"/>
<path d="M114.168 12.9921C117.47 13.0073 120.773 13.0022 124.075 13.0226C124.08 17.5092 124.08 21.9958 124.09 26.4874C126.121 26.523 128.156 26.4467 130.186 26.4925C130.375 28.8274 130.293 31.1724 130.217 33.5174C128.176 33.5225 126.136 33.5276 124.101 33.5429C123.973 41.3054 124.06 49.073 124.055 56.8406C124.172 58.5192 123.821 60.7218 125.449 61.7951C126.909 62.4717 128.604 62.2987 130.171 62.492C130.247 65.9612 131.973 69.7357 135.479 70.8853C132.09 70.9616 128.706 70.8802 125.322 70.8446C122.401 70.8141 119.368 69.9849 117.206 67.94C115.124 66.0274 114.122 63.1737 114.137 60.381C113.908 51.4333 114.315 42.4753 114.091 33.5276C112.443 33.5225 110.794 33.5225 109.145 33.5225C109.145 31.1826 109.14 28.8426 109.145 26.5027C110.794 26.4925 112.448 26.4874 114.102 26.4823C114.127 21.9856 114.142 17.4888 114.168 12.9921Z" fill="#B61635"/>
<path d="M169.716 12.9921C173.014 12.9921 176.312 12.9921 179.615 12.9921C179.615 27.9357 179.62 42.8793 179.61 57.823C179.651 59.1381 179.62 60.6411 180.556 61.6972C181.627 62.7179 183.242 62.5554 184.616 62.6671C184.621 65.5004 184.621 68.3338 184.616 71.1671C180.809 71.2687 176.667 71.0757 173.565 68.608C170.468 66.3992 169.536 62.3878 169.706 58.808C169.722 43.5344 169.706 28.2657 169.716 12.9921Z" fill="#B61635"/>
<path d="M134.664 26.5265C137.939 26.5265 141.21 26.5265 144.486 26.5265C144.496 36.9102 144.47 47.2888 144.496 57.6675C144.409 59.4742 145.174 61.3977 146.792 62.3315C148.986 63.2806 151.981 63.0167 153.491 61.0019C154.302 59.6163 154.415 57.9568 154.435 56.3886C154.435 46.4362 154.435 36.4788 154.435 26.5265C157.711 26.5265 160.981 26.5265 164.257 26.5316C164.257 41.4575 164.257 56.3835 164.257 71.3145C160.981 71.3145 157.711 71.3145 154.435 71.3145C154.44 69.8174 154.43 68.3202 154.425 66.823C152.542 69.2692 149.914 71.4312 146.71 71.6698C142.266 72.1265 137.159 69.9493 135.439 65.6253C134.766 64.1687 134.659 62.5498 134.664 60.9663C134.669 49.4864 134.664 38.0064 134.664 26.5265Z" fill="#B61635"/>
<path fill-rule="evenodd" clip-rule="evenodd" d="M208.205 26.7765C204.142 25.4971 199.54 25.7306 195.762 27.7563C191.644 30.0054 188.416 34.2397 188.248 39.0324C188.127 42.0158 188.144 45.0011 188.161 47.9871C188.171 49.9098 188.182 51.8327 188.156 53.7557C188.16 54.0126 188.164 54.2706 188.167 54.5294C188.21 57.7365 188.254 61.0586 189.724 63.9808C191.216 67.6007 194.815 69.8599 198.394 71.0683C202.518 72.1801 207.212 71.9669 210.98 69.8346C214.717 67.1641 217.965 63.0111 217.73 58.193H217.728C214.46 58.1879 211.198 58.1828 207.935 58.193C207.482 59.6805 206.82 61.3103 205.293 61.9855C202.6 63.5441 198.557 61.955 198.033 58.8124C197.921 57.3737 197.94 55.9309 197.959 54.4892C197.971 53.6466 197.982 52.8043 197.967 51.9635C201.723 51.9693 205.479 51.9685 209.235 51.9676C212.051 51.967 214.868 51.9664 217.685 51.9686C217.689 50.3924 217.689 48.8152 217.688 47.2378C217.687 45.3451 217.686 43.4521 217.695 41.5607L217.695 41.5088C217.684 39.5505 217.674 37.5586 217.079 35.6765C215.821 31.4981 212.339 28.132 208.205 26.7765ZM197.963 42.7801C197.933 40.971 197.903 39.1492 198.471 37.4232C200.018 34.1587 205.741 33.8947 207.243 37.347C207.966 39.0506 207.928 40.9041 207.889 42.7397C207.875 43.4096 207.861 44.0771 207.884 44.7341H197.967C197.984 44.0878 197.974 43.4348 197.963 42.7801Z" fill="#B61635"/>
<path d="M223.175 26.4669C226.446 26.4618 229.722 26.4618 232.992 26.4669C232.992 27.9557 232.998 29.4446 232.998 30.9334C236.697 24.9117 246.54 24.1673 250.806 29.9085C252.694 31.9634 252.694 34.8901 252.766 37.516C252.766 48.8302 252.766 60.1444 252.766 71.4587C249.495 71.4587 246.219 71.4587 242.948 71.4587C242.861 60.6084 243.106 49.748 242.826 38.9079C242.764 35.0022 237.554 33.8958 234.88 35.9404C233.579 37.0979 232.977 38.8467 233.003 40.5599C232.982 50.8595 233.003 61.1591 232.992 71.4587C229.722 71.4587 226.446 71.4587 223.175 71.4587C223.17 56.458 223.175 41.4624 223.175 26.4669Z" fill="#B61635"/>
</svg>
