<svg width="165" height="47" viewBox="0 0 165 47" fill="none" xmlns="http://www.w3.org/2000/svg">
<path d="M30.5506 0.340899C30.8523 0.0564676 31.3188 -0.141398 31.6842 0.127134C32.3416 0.579397 32.9239 1.14649 33.5421 1.65882C42.9016 9.59287 52.2448 17.5481 61.6075 25.4786C61.9957 25.8143 62.49 26.1287 62.5618 26.717C62.5454 27.2594 62.1556 27.8 61.6238 27.7894C59.6012 27.8177 57.577 27.7859 55.5527 27.7982C55.021 27.7558 54.5349 28.2523 54.5659 28.8335C54.5088 34.4391 54.561 40.0464 54.5643 45.6538C54.5577 46.0142 54.5382 46.4223 54.2821 46.6926C53.9868 47.023 53.5269 46.9735 53.1386 47C47.5862 46.9647 42.0322 47 36.4798 46.9806C35.8975 47.0371 35.4098 46.4523 35.4799 45.8322C35.475 41.0534 35.4815 36.2746 35.4766 31.4958C35.488 31.0683 35.444 30.5295 35.8273 30.2645C36.8778 29.4536 37.2334 27.8283 38.5383 27.3601C39.866 26.7506 41.1628 27.641 42.3715 28.1533C43.386 28.6833 44.5409 28.5067 45.6305 28.5243C46.035 28.4996 46.464 28.5685 46.849 28.4007C47.1736 28.2364 47.2404 27.8088 47.2388 27.4608C47.2062 24.5105 47.2143 21.5584 47.185 18.6081C47.2323 18.1346 46.906 17.6594 46.4477 17.6753C45.4609 17.6576 44.4724 17.6329 43.4872 17.6983C41.887 17.9173 40.5332 19.4579 38.8466 19.0339C37.8907 18.8819 37.3182 17.8714 36.3738 17.7C35.9823 17.6099 35.5778 17.6064 35.1798 17.6064C33.1147 17.647 31.0513 17.6453 28.9863 17.6576C27.1855 17.6506 25.3309 17.5781 23.6052 18.2353C20.55 19.3377 18.0707 21.7192 15.9355 24.2543C14.9585 25.5034 14.001 26.7806 13.1708 28.1498C12.7238 28.7999 13.4627 29.7451 14.1348 29.4677C14.8068 29.1444 15.3597 28.5932 16.004 28.2116C17.6646 27.1587 19.3789 26.1164 21.2677 25.6412C22.8124 25.2366 24.5317 26.0457 25.3146 27.5403C25.7077 28.3017 25.8252 29.1851 26.1775 29.9659C26.3439 30.321 26.7516 30.3458 27.0616 30.4659C27.0681 35.5856 27.0567 40.7072 27.0648 45.8269C27.1056 46.4435 26.6538 47.03 26.0633 46.9806C20.3576 46.9859 14.6518 46.9947 8.9461 46.977C8.35725 47.03 7.93479 46.4364 7.98209 45.834C7.95762 40.2938 7.98698 34.7518 7.98209 29.2116C8.01798 28.6992 7.90053 28.0703 7.39814 27.876C6.88596 27.7364 6.35095 27.8159 5.82898 27.7982C4.14564 27.7806 2.45904 27.8336 0.775703 27.7717C-0.00724565 27.6869 -0.292696 26.4326 0.367917 25.9574C10.4239 17.4121 20.4897 8.87914 30.5506 0.340899Z" fill="white"/>
<path d="M74.5261 8.4812C76.6818 8.49116 78.8376 8.48784 80.9934 8.50112C80.9967 11.4299 80.9967 14.3586 81.0034 17.2907C82.3287 17.3139 83.6574 17.2641 84.9827 17.294C85.1056 18.8181 85.0525 20.3489 85.0027 21.8797C83.6707 21.883 82.3387 21.8863 81.01 21.8963C80.927 26.9635 80.9834 32.034 80.9801 37.1045C81.0565 38.2003 80.8273 39.6381 81.8902 40.3388C82.8436 40.7804 83.9497 40.6675 84.9728 40.7937C85.0226 43.0583 86.1486 45.5222 88.4373 46.2726C86.225 46.3224 84.0161 46.2693 81.8072 46.2461C79.9006 46.2261 77.9208 45.6849 76.5091 44.35C75.1505 43.1015 74.4962 41.2386 74.5061 39.4156C74.3567 33.5748 74.6224 27.7272 74.4762 21.8863C73.4 21.883 72.3238 21.883 71.2476 21.883C71.2476 20.3556 71.2442 18.8281 71.2476 17.3006C72.3238 17.294 73.4033 17.2907 74.4829 17.2874C74.4995 14.352 74.5095 11.4166 74.5261 8.4812Z" fill="white"/>
<path d="M110.787 8.4812C112.94 8.4812 115.092 8.4812 117.248 8.4812C117.248 18.2361 117.252 27.9909 117.245 37.7458C117.272 38.6043 117.252 39.5854 117.863 40.2749C118.561 40.9411 119.616 40.835 120.513 40.908C120.516 42.7575 120.516 44.607 120.513 46.4566C118.027 46.5229 115.324 46.3969 113.299 44.786C111.277 43.3442 110.669 40.7256 110.78 38.3889C110.79 28.4185 110.78 18.4515 110.787 8.4812Z" fill="white"/>
<path d="M87.9054 17.3159C90.0437 17.3159 92.1786 17.3159 94.3169 17.3159C94.3236 24.0942 94.3069 30.8691 94.3236 37.6441C94.2669 38.8235 94.7665 40.0791 95.8224 40.6887C97.2545 41.3082 99.2096 41.1359 100.196 39.8207C100.725 38.9162 100.798 37.8329 100.812 36.8092C100.812 30.3126 100.812 23.8126 100.812 17.3159C102.95 17.3159 105.085 17.3159 107.223 17.3192C107.223 27.0626 107.223 36.8059 107.223 46.5526C105.085 46.5526 102.95 46.5526 100.812 46.5526C100.815 45.5752 100.808 44.5979 100.805 43.6206C99.576 45.2174 97.8607 46.6287 95.7691 46.7845C92.8681 47.0826 89.5341 45.6614 88.4116 42.8388C87.972 41.8879 87.9021 40.8311 87.9054 39.7975C87.9087 32.3036 87.9054 24.8098 87.9054 17.3159Z" fill="white"/>
<path fill-rule="evenodd" clip-rule="evenodd" d="M135.911 17.4792C133.259 16.644 130.255 16.7965 127.789 18.1188C125.101 19.587 122.994 22.351 122.884 25.4796C122.805 27.4271 122.816 29.3758 122.827 31.325C122.834 32.5801 122.841 33.8353 122.824 35.0906C122.827 35.2584 122.829 35.4268 122.831 35.5957C122.859 37.6892 122.888 39.8578 123.848 41.7653C124.821 44.1283 127.171 45.6031 129.507 46.3919C132.199 47.1177 135.263 46.9785 137.723 45.5866C140.162 43.8433 142.282 41.1323 142.129 37.9872L142.127 37.9872C139.994 37.9839 137.865 37.9806 135.735 37.9872C135.44 38.9582 135.008 40.0221 134.011 40.4629C132.252 41.4803 129.614 40.443 129.271 38.3915C129.198 37.4524 129.211 36.5105 129.223 35.5694C129.231 35.0194 129.238 34.4696 129.228 33.9207C131.68 33.9245 134.132 33.924 136.584 33.9234C138.422 33.923 140.261 33.9226 142.1 33.924C142.103 32.8951 142.102 31.8655 142.102 30.8359C142.101 29.6003 142.101 28.3647 142.106 27.13L142.106 27.0961C142.099 25.8178 142.093 24.5175 141.704 23.2889C140.883 20.5613 138.61 18.3641 135.911 17.4792ZM129.226 27.9257C129.206 26.7448 129.186 25.5556 129.557 24.4289C130.568 22.2979 134.303 22.1255 135.283 24.3791C135.756 25.4912 135.73 26.7011 135.705 27.8994C135.696 28.3367 135.687 28.7724 135.702 29.2012H129.228C129.24 28.7794 129.233 28.3531 129.226 27.9257Z" fill="white"/>
<path d="M145.683 17.2771C147.818 17.2737 149.957 17.2737 152.092 17.2771C152.092 18.249 152.095 19.2209 152.095 20.1927C154.51 16.2619 160.936 15.776 163.72 19.5237C164.953 20.8651 164.953 22.7756 165 24.4897C165 31.8754 165 39.2611 165 46.6467C162.864 46.6467 160.726 46.6467 158.591 46.6467C158.534 39.5639 158.694 32.4745 158.511 25.3983C158.471 22.8488 155.07 22.1265 153.324 23.4612C152.475 24.2168 152.082 25.3584 152.099 26.4767C152.085 33.2001 152.099 39.9234 152.092 46.6467C149.957 46.6467 147.818 46.6467 145.683 46.6467C145.68 36.8546 145.683 27.0659 145.683 17.2771Z" fill="white"/>
</svg>
